<?xml version="1.0" standalone="no"?>
<!DOCTYPE svg PUBLIC "-//W3C//DTD SVG 1.1//EN" "http://www.w3.org/Graphics/SVG/1.1/DTD/svg11.dtd" >
<svg>
<metadata>
Created by FontForge 20090914 at Thu Dec 21 10:42:28 2017
 By www-data
Chinese Pinyin symbols by C. C. Cheng 1996
</metadata>
<defs>
<font id="TimesIPAnew" horiz-adv-x="722" >
  <font-face 
    font-family="Chinese Pinyin Cap"
    font-weight="5"
    font-stretch="normal"
    units-per-em="1000"
    panose-1="0 0 0 0 0 0 0 0 0 0"
    ascent="800"
    descent="-200"
    x-height="447.999"
    cap-height="661.999"
    bbox="-53 -217.999 936 1038"
    underline-thickness="50"
    underline-position="-55"
    unicode-range="U+0020-U+00A0"
  />
<missing-glyph horiz-adv-x="736" 
d="M46 0v736h644v-736h-644zM644 46v644h-552v-644h552z" />
    <glyph glyph-name=".notdef" horiz-adv-x="736" 
d="M46 0v736h644v-736h-644zM644 46v644h-552v-644h552z" />
    <glyph glyph-name="space" unicode=" " horiz-adv-x="333" 
 />
    <glyph glyph-name="exclam" unicode="!" 
d="M458 222l-257 0.000976562l-45 -105c-10.667 -28 -16 -47 -16 -57s4.33301 -19 13 -27c9.33301 -6 30.333 -11 63 -15v-18h-208v18c27.333 5.33301 45.333 11.666 54 18.999c16 16 34.333 47.667 55 95l233 545h17l230 -551c20 -44 36.667 -72.667 50 -86
c6.66699 -6 16 -11.667 28 -17c11.333 -3.33301 23.333 -5 36 -5v-18h-261v18c24.667 0 42 4 52 12s15 17.667 15 29c0 14.667 -6.33301 37 -19 67zM444 258.001l-112 267l-116 -267h228zM474 864.001l-138 -139l-23 -18c-8 -6 -16.667 -10 -26 -12h-5l-6 -1l-3 1l-4 1
l-10 9l-7 11l-1 5l-1 4c0 6 2.33301 12.333 7 19l17 17l5 5l6 4l3 2l2 2l144 90h40z" />
    <glyph glyph-name="quotedbl" unicode="&#x22;" horiz-adv-x="408" 
d="M281 392l-26 143l-11 59l-1 24c0 19.333 4.66699 34 14 44s21.333 15 36 15c14 0 25.667 -4.66699 35 -14s14 -22 14 -38c0 -26.667 -3 -56.667 -9 -90l-28 -143h-24zM103 392l-26.999 145c-7.33301 40.667 -11 67.667 -11 81c0 20.667 4.16699 35.667 12.5 45
s20.166 14 35.499 14c14 0 25.833 -4.83301 35.5 -14.5s14.5 -22.167 14.5 -37.5c0 -6 -1 -16 -3 -30s-5.33301 -33.667 -10 -59l-26 -144h-21z" />
    <glyph glyph-name="numbersign" unicode="#" 
d="M458 222l-257 0.000976562l-45 -105c-10.667 -28 -16 -47 -16 -57s4.33301 -19 13 -27c9.33301 -6 30.333 -11 63 -15v-18h-208v18c27.333 5.33301 45.333 11.666 54 18.999c16 16 34.333 47.667 55 95l233 545h17l230 -551c20 -44 36.667 -72.667 50 -86
c6.66699 -6 16 -11.667 28 -17c11.333 -3.33301 23.333 -5 36 -5v-18h-261v18c24.667 0 42 4 52 12s15 17.667 15 29c0 14.667 -6.33301 37 -19 67zM444 258.001l-112 267l-116 -267h228zM397 712.001l-143.999 90.999l-8 3l-8 6l-19 15c-2.66699 4 -5.33398 10 -8.00098 18
c0 12.667 2.83301 21.834 8.5 27.501s13.167 8.83398 22.5 9.50098l12 -2l14 -5c6 -2 11.667 -5.66699 17 -11c6.66699 -4.66699 11.667 -9.33398 15 -14.001l138 -138h-40z" />
    <glyph glyph-name="dollar" unicode="$" horiz-adv-x="611" 
d="M209 626l0.00195312 -262.001h145c37.333 0 62.666 5.66699 75.999 17c18.667 16.667 28 43 28 79h19v-230h-19c-4 34 -8.66699 55.333 -14 64c-4.66699 10 -14.5 18.333 -29.5 25s-35.167 10 -60.5 10h-145v-219c0 -30 1 -47.667 3 -53s6.33301 -10.166 13 -14.499
s19.667 -6.5 39 -6.5h112c36.667 0 63.5 2.5 80.5 7.5s33.5 15.5 49.5 31.5c7.33301 7.33301 12.666 13 15.999 17s8.33301 11 15 21l31 53h20l-57 -166h-510v18h23c16.667 0 31.334 3.66699 44.001 11c10 4 17 11.333 21 22s6 32.667 6 66v430c0 42 -4 68 -12 78
c-12.667 12.667 -32.334 19 -59.001 19h-23v18h510l7 -145h-19c-7.33301 37.333 -15 61.333 -23 72c-7.33301 12 -19.666 22 -36.999 30c-12.667 4.66699 -35.334 7 -68.001 7h-182zM38.002 819.999h522v-68h-522v68z" />
    <glyph glyph-name="percent" unicode="%" horiz-adv-x="440" 
d="M369 28v-18h-284v18h23c26 0 46 8 60 24c8 10 12 35 12 75v428c0 33.333 -2 54.666 -6 63.999s-11 17 -21 23c-14 8 -29 12 -45 12h-23v18h284v-18h-24c-26 0 -45.667 -8 -59 -24c-8.66699 -10.667 -13 -35.667 -13 -75v-428c0 -33.333 2 -54.666 6 -63.999
s12 -17.5 24 -24.5s26 -10.5 42 -10.5h24zM57 820h333l-6 -50h-326z" />
    <glyph glyph-name="ampersand" unicode="&#x26;" horiz-adv-x="444" 
d="M363 24v-18h-284v18h23c26 0 46 8 60 24c8 10 12 35 12 75v428c0 33.333 -2 54.666 -6 63.999s-11 17 -21 23c-14 8 -29 12 -45 12h-23v18h284v-18h-24c-26 0 -45.667 -8 -59 -24c-8.66699 -10.667 -13 -35.667 -13 -75v-428c0 -33.333 2 -54.666 6 -63.999
s12 -17.5 24 -24.5s26 -10.5 42 -10.5h24zM388 900l-125 -167h-62l-124 167h34l121 -103l122 103h34z" />
    <glyph glyph-name="quotesingle" unicode="'" horiz-adv-x="180" 
d="M77 392l-25.999 145c-7.33301 36.667 -11 63.667 -11 81c0 8.66699 0.5 16.667 1.5 24s4.5 14.333 10.5 21c9.33301 9.33301 21 14 35 14c13.333 0 25.166 -4.83301 35.499 -14.5s15.5 -22.167 15.5 -37.5c0 -13.333 -4.33301 -43 -13 -89l-26 -144h-22z" />
    <glyph glyph-name="parenleft" unicode="(" horiz-adv-x="333" 
d="M311 -196l-0.000976562 -17.998c-24 12 -46.5 25.5 -67.5 40.5s-39.5 30.5 -55.5 46.5c-48 48 -84.5 104 -109.5 168s-37.5 130.333 -37.5 199c0 100 25 191.833 75 275.5s115 143.167 195 178.5v-20c-40.667 -22 -73.667 -52.333 -99 -91
c-12 -18.667 -23 -40.334 -33 -65.001s-18.167 -51.834 -24.5 -81.501s-11.166 -59.667 -14.499 -90s-5 -61.833 -5 -94.5c0 -65.333 5 -124.833 15 -178.5s20.833 -93.667 32.5 -120s28 -52.5 49 -78.5s47.5 -49.667 79.5 -71z" />
    <glyph glyph-name="parenright" unicode=")" horiz-adv-x="333" 
d="M22 674l0.000976562 20.002c48.667 -23.333 90 -52 124 -86c46 -46.667 81.833 -102.334 107.5 -167.001s38.5 -131.334 38.5 -200.001c0 -100.667 -24.833 -192.667 -74.5 -276s-114.834 -143 -195.501 -179v18c40 22.667 72.833 53 98.5 91s45.167 86.667 58.5 146
c6 30 10.667 60.167 14 90.5s5 61.833 5 94.5c0 64.667 -5.33301 128 -16 190c-8 46 -18.333 82 -31 108c-12 27.333 -28 53.5 -48 78.5s-47 48.833 -81 71.5z" />
    <glyph glyph-name="asterisk" unicode="*" horiz-adv-x="420" 
d="M369 24l-6 -18h-284v18h23c26 0 46 8 60 24c8 10 12 35 12 75v428c0 33.333 -2 54.666 -6 63.999s-11 17 -21 23c-14 8 -29 12 -45 12h-23v18h284v-18h-24c-26 0 -45.667 -8 -59 -24c-8.66699 -10.667 -13 -35.667 -13 -75v-428c0 -33.333 2 -54.666 6 -63.999
s12 -17.5 24 -24.5s26 -10.5 42 -10.5h30zM271 766l-143.999 90.999l-8 3l-8 6l-19 15c-2.66699 4 -5.33398 10 -8.00098 18c0 12.667 2.83301 21.834 8.5 27.501s13.167 8.83398 22.5 9.50098l12 -2l14 -5c6 -2 11.667 -5.66699 17 -11
c6.66699 -4.66699 11.667 -9.33398 15 -14.001l138 -138h-40z" />
    <glyph glyph-name="plus" unicode="+" 
d="M477 620v17.001h234v-17h-24c-26 0 -46.333 -9.66699 -61 -29c-6.66699 -8.66699 -10 -29.667 -10 -63v-242c0 -62.667 -6.5 -109.667 -19.5 -141s-39 -58.833 -78 -82.5s-91.5 -35.5 -157.5 -35.5c-72 0 -126.5 11 -163.5 33s-63.833 52.667 -80.5 92
c-10 26 -15 74.667 -15 146v233c0 36 -6 60 -18 72c-9.33301 11.333 -27.333 17 -54 17h-25v17h287v-17h-26c-28 0 -46.833 -6.83301 -56.5 -20.5s-14.5 -36.5 -14.5 -68.5v-260c0 -26 2.5 -53.333 7.5 -82s13.333 -50.834 25 -66.501s29.5 -29.5 53.5 -41.5l40 -13l46 -4
c42 0 80.167 8.33301 114.5 25s58 38.5 71 65.5s19.5 72.167 19.5 135.5v241c0 38 -4.33301 61.667 -13 71c-13.333 12 -32.333 18 -57 18h-25zM200 790.001c14 0 26.168 -4.66797 36.501 -14.001s15.5 -20.666 15.5 -33.999c0 -14.667 -4.66699 -27 -14 -37
c-8 -10 -19 -15 -33 -15s-26.667 4.33301 -38 13c-10 9.33301 -15 21 -15 35s4.66699 26.167 14 36.5s20.666 15.5 33.999 15.5zM525.001 790l5.99902 1h5c12 0 22.833 -3.5 32.5 -10.5s15.834 -16.5 18.501 -28.5l1 -10c0 -11.333 -4 -22.333 -12 -33s-18.333 -17 -31 -19
c-14 -2 -26 0 -36 6s-17 14.333 -21 25l-3 19c0 12 3.66699 22.667 11 32s17 15.333 29 18zM504 954l-138 -139l-23 -18c-8 -6 -16.667 -10 -26 -12h-5l-6 -1l-3 1l-4 1l-10 9l-7 11l-1 5l-1 4c0 6 2.33301 12.333 7 19l17 17l5 5l6 4l3 2l2 2l144 90h40z" />
    <glyph glyph-name="comma" unicode="," horiz-adv-x="250" 
d="M54 -167v22c33.333 10.667 59 28 77 52c18.667 22.667 28 47 28 73c0 5.33301 -1 10 -3 14c-3.33301 3.33301 -6 5.33301 -8 6c-4.66699 -0.666992 -7.66699 -1.33398 -9 -2.00098l-14 -6c-6 -4 -12.333 -6 -19 -6c-14 0 -26.667 4.66699 -38 14
c-9.33301 10.667 -14 24 -14 40c0 14.667 6 28 18 40s27 18 45 18c20 0 38.667 -9.5 56 -28.5s26 -43.833 26 -74.5c0 -34 -11 -64.667 -33 -92s-59.333 -50.666 -112 -69.999z" />
    <glyph glyph-name="hyphen" unicode="-" 
d="M366 677c86 0 160.5 -32.668 223.5 -98.001s94.5 -146.666 94.5 -243.999c0 -99.333 -31.833 -182.5 -95.5 -249.5s-140.5 -100.5 -230.5 -100.5s-166.333 32 -229 96s-94 148 -94 252s36 190 108 258c62.667 57.333 137 86 223 86zM356 641.999
c-57.333 0 -104.666 -22 -141.999 -66c-44.667 -54.667 -67 -135 -67 -241s23 -189 69 -249c35.333 -44 82.333 -66 141 -66c33.333 0 62 5.66699 86 17s46.667 29.666 68 54.999c40.667 50.667 61 127.334 61 230.001c0 114 -22.333 198.333 -67 253
c-36.667 44.667 -86.334 67 -149.001 67zM397 711.999l-143.999 90.999l-8 3l-8 6l-19 15c-2.66699 4 -5.33398 10 -8.00098 18c0 12.667 2.83301 21.834 8.5 27.501s13.167 8.83398 22.5 9.50098l12 -2l14 -5c6 -2 11.667 -5.66699 17 -11
c6.66699 -4.66699 11.667 -9.33398 15 -14.001l138 -138h-40z" />
    <glyph glyph-name="period" unicode="." horiz-adv-x="250" 
d="M125 95c14.667 0 27.668 -5.33301 39.001 -16c10 -11.333 15 -24 15 -38c0 -15.333 -5.33301 -28.333 -16 -39s-23.334 -16 -38.001 -16s-27.667 5.33301 -39 16c-10 11.333 -15 24.333 -15 39c0 13.333 5 26 15 38c12.667 10.667 25.667 16 39 16z" />
    <glyph glyph-name="slash" unicode="/" horiz-adv-x="278" 
d="M280 694l-239 -708h-40l240 708h39z" />
    <glyph glyph-name="zero" unicode="0" 
d="M366 677c86 0 160.5 -32.668 223.5 -98.001s94.5 -146.666 94.5 -243.999c0 -99.333 -31.833 -182.5 -95.5 -249.5s-140.5 -100.5 -230.5 -100.5s-166.333 32 -229 96s-94 148 -94 252s36 190 108 258c62.667 57.333 137 86 223 86zM356 641.999
c-57.333 0 -104.666 -22 -141.999 -66c-44.667 -54.667 -67 -135 -67 -241s23 -189 69 -249c35.333 -44 82.333 -66 141 -66c33.333 0 62 5.66699 86 17s46.667 29.666 68 54.999c40.667 50.667 61 127.334 61 230.001c0 114 -22.333 198.333 -67 253
c-36.667 44.667 -86.334 67 -149.001 67zM513 894.999l-125 -167h-62l-124 167h34l121 -103l122 103h34z" />
    <glyph glyph-name="one" unicode="1" 
d="M458 222l-257 0.000976562l-45 -105c-10.667 -28 -16 -47 -16 -57s4.33301 -19 13 -27c9.33301 -6 30.333 -11 63 -15v-18h-208v18c27.333 5.33301 45.333 11.666 54 18.999c16 16 34.333 47.667 55 95l233 545h17l230 -551c20 -44 36.667 -72.667 50 -86
c6.66699 -6 16 -11.667 28 -17c11.333 -3.33301 23.333 -5 36 -5v-18h-261v18c24.667 0 42 4 52 12s15 17.667 15 29c0 14.667 -6.33301 37 -19 67zM444 258.001l-112 267l-116 -267h228zM474 864.001l-138 -139l-23 -18c-8 -6 -16.667 -10 -26 -12h-5l-6 -1l-3 1l-4 1
l-10 9l-7 11l-1 5l-1 4c0 6 2.33301 12.333 7 19l17 17l5 5l6 4l3 2l2 2l144 90h40z" />
    <glyph glyph-name="two" unicode="2" 
d="M458 222l-257 0.000976562l-45 -105c-10.667 -28 -16 -47 -16 -57s4.33301 -19 13 -27c9.33301 -6 30.333 -11 63 -15v-18h-208v18c27.333 5.33301 45.333 11.666 54 18.999c16 16 34.333 47.667 55 95l233 545h17l230 -551c20 -44 36.667 -72.667 50 -86
c6.66699 -6 16 -11.667 28 -17c11.333 -3.33301 23.333 -5 36 -5v-18h-261v18c24.667 0 42 4 52 12s15 17.667 15 29c0 14.667 -6.33301 37 -19 67zM444 258.001l-112 267l-116 -267h228zM513 895.001l-125 -167h-62l-124 167h34l121 -103l122 103h34z" />
    <glyph glyph-name="three" unicode="3" 
d="M458 222l-257 0.000976562l-45 -105c-10.667 -28 -16 -47 -16 -57s4.33301 -19 13 -27c9.33301 -6 30.333 -11 63 -15v-18h-208v18c27.333 5.33301 45.333 11.666 54 18.999c16 16 34.333 47.667 55 95l233 545h17l230 -551c20 -44 36.667 -72.667 50 -86
c6.66699 -6 16 -11.667 28 -17c11.333 -3.33301 23.333 -5 36 -5v-18h-261v18c24.667 0 42 4 52 12s15 17.667 15 29c0 14.667 -6.33301 37 -19 67zM444 258.001l-112 267l-116 -267h228zM397 712.001l-143.999 90.999l-8 3l-8 6l-19 15c-2.66699 4 -5.33398 10 -8.00098 18
c0 12.667 2.83301 21.834 8.5 27.501s13.167 8.83398 22.5 9.50098l12 -2l14 -5c6 -2 11.667 -5.66699 17 -11c6.66699 -4.66699 11.667 -9.33398 15 -14.001l138 -138h-40z" />
    <glyph glyph-name="four" unicode="4" horiz-adv-x="611" 
d="M209 626l0.00195312 -262.001h145c37.333 0 62.666 5.66699 75.999 17c18.667 16.667 28 43 28 79h19v-230h-19c-4 34 -8.66699 55.333 -14 64c-4.66699 10 -14.5 18.333 -29.5 25s-35.167 10 -60.5 10h-145v-219c0 -30 1 -47.667 3 -53s6.33301 -10.166 13 -14.499
s19.667 -6.5 39 -6.5h112c36.667 0 63.5 2.5 80.5 7.5s33.5 15.5 49.5 31.5c7.33301 7.33301 12.666 13 15.999 17s8.33301 11 15 21l31 53h20l-57 -166h-510v18h23c16.667 0 31.334 3.66699 44.001 11c10 4 17 11.333 21 22s6 32.667 6 66v430c0 42 -4 68 -12 78
c-12.667 12.667 -32.334 19 -59.001 19h-23v18h510l7 -145h-19c-7.33301 37.333 -15 61.333 -23 72c-7.33301 12 -19.666 22 -36.999 30c-12.667 4.66699 -35.334 7 -68.001 7h-182zM38.002 819.999h522v-68h-522v68z" />
    <glyph glyph-name="five" unicode="5" horiz-adv-x="611" 
d="M209 626l0.00195312 -262.001h145c37.333 0 62.666 5.66699 75.999 17c18.667 16.667 28 43 28 79h19v-230h-19c-4 34 -8.66699 55.333 -14 64c-4.66699 10 -14.5 18.333 -29.5 25s-35.167 10 -60.5 10h-145v-219c0 -30 1 -47.667 3 -53s6.33301 -10.166 13 -14.499
s19.667 -6.5 39 -6.5h112c36.667 0 63.5 2.5 80.5 7.5s33.5 15.5 49.5 31.5c7.33301 7.33301 12.666 13 15.999 17s8.33301 11 15 21l31 53h20l-57 -166h-510v18h23c16.667 0 31.334 3.66699 44.001 11c10 4 17 11.333 21 22s6 32.667 6 66v430c0 42 -4 68 -12 78
c-12.667 12.667 -32.334 19 -59.001 19h-23v18h510l7 -145h-19c-7.33301 37.333 -15 61.333 -23 72c-7.33301 12 -19.666 22 -36.999 30c-12.667 4.66699 -35.334 7 -68.001 7h-182zM414.002 863.999l-138 -139l-23 -18c-8 -6 -16.667 -10 -26 -12h-5l-6 -1l-3 1l-4 1l-10 9
l-7 11l-1 5l-1 4c0 6 2.33301 12.333 7 19l17 17l5 5l6 4l3 2l2 2l144 90h40z" />
    <glyph glyph-name="six" unicode="6" horiz-adv-x="611" 
d="M209 626l0.00195312 -262.001h145c37.333 0 62.666 5.66699 75.999 17c18.667 16.667 28 43 28 79h19v-230h-19c-4 34 -8.66699 55.333 -14 64c-4.66699 10 -14.5 18.333 -29.5 25s-35.167 10 -60.5 10h-145v-219c0 -30 1 -47.667 3 -53s6.33301 -10.166 13 -14.499
s19.667 -6.5 39 -6.5h112c36.667 0 63.5 2.5 80.5 7.5s33.5 15.5 49.5 31.5c7.33301 7.33301 12.666 13 15.999 17s8.33301 11 15 21l31 53h20l-57 -166h-510v18h23c16.667 0 31.334 3.66699 44.001 11c10 4 17 11.333 21 22s6 32.667 6 66v430c0 42 -4 68 -12 78
c-12.667 12.667 -32.334 19 -59.001 19h-23v18h510l7 -145h-19c-7.33301 37.333 -15 61.333 -23 72c-7.33301 12 -19.666 22 -36.999 30c-12.667 4.66699 -35.334 7 -68.001 7h-182zM463.002 879.999l-125 -167h-62l-124 167h34l121 -103l122 103h34z" />
    <glyph glyph-name="seven" unicode="7" horiz-adv-x="611" 
d="M209 626l0.00195312 -262.001h145c37.333 0 62.666 5.66699 75.999 17c18.667 16.667 28 43 28 79h19v-230h-19c-4 34 -8.66699 55.333 -14 64c-4.66699 10 -14.5 18.333 -29.5 25s-35.167 10 -60.5 10h-145v-219c0 -30 1 -47.667 3 -53s6.33301 -10.166 13 -14.499
s19.667 -6.5 39 -6.5h112c36.667 0 63.5 2.5 80.5 7.5s33.5 15.5 49.5 31.5c7.33301 7.33301 12.666 13 15.999 17s8.33301 11 15 21l31 53h20l-57 -166h-510v18h23c16.667 0 31.334 3.66699 44.001 11c10 4 17 11.333 21 22s6 32.667 6 66v430c0 42 -4 68 -12 78
c-12.667 12.667 -32.334 19 -59.001 19h-23v18h510l7 -145h-19c-7.33301 37.333 -15 61.333 -23 72c-7.33301 12 -19.666 22 -36.999 30c-12.667 4.66699 -35.334 7 -68.001 7h-182zM357.002 701.999l-143.999 90.999l-8 3l-8 6l-19 15c-2.66699 4 -5.33398 10 -8.00098 18
c0 12.667 2.83301 21.834 8.5 27.501s13.167 8.83398 22.5 9.50098l12 -2l14 -5c6 -2 11.667 -5.66699 17 -11c6.66699 -4.66699 11.667 -9.33398 15 -14.001l138 -138h-40z" />
    <glyph glyph-name="eight" unicode="8" 
d="M366 677c86 0 160.5 -32.668 223.5 -98.001s94.5 -146.666 94.5 -243.999c0 -99.333 -31.833 -182.5 -95.5 -249.5s-140.5 -100.5 -230.5 -100.5s-166.333 32 -229 96s-94 148 -94 252s36 190 108 258c62.667 57.333 137 86 223 86zM356 641.999
c-57.333 0 -104.666 -22 -141.999 -66c-44.667 -54.667 -67 -135 -67 -241s23 -189 69 -249c35.333 -44 82.333 -66 141 -66c33.333 0 62 5.66699 86 17s46.667 29.666 68 54.999c40.667 50.667 61 127.334 61 230.001c0 114 -22.333 198.333 -67 253
c-36.667 44.667 -86.334 67 -149.001 67zM103 829.999h522v-68h-522v68z" />
    <glyph glyph-name="nine" unicode="9" 
d="M366 677c86 0 160.5 -32.668 223.5 -98.001s94.5 -146.666 94.5 -243.999c0 -99.333 -31.833 -182.5 -95.5 -249.5s-140.5 -100.5 -230.5 -100.5s-166.333 32 -229 96s-94 148 -94 252s36 190 108 258c62.667 57.333 137 86 223 86zM356 641.999
c-57.333 0 -104.666 -22 -141.999 -66c-44.667 -54.667 -67 -135 -67 -241s23 -189 69 -249c35.333 -44 82.333 -66 141 -66c33.333 0 62 5.66699 86 17s46.667 29.666 68 54.999c40.667 50.667 61 127.334 61 230.001c0 114 -22.333 198.333 -67 253
c-36.667 44.667 -86.334 67 -149.001 67zM464 888.999l-138 -139l-23 -18c-8 -6 -16.667 -10 -26 -12h-5l-6 -1l-3 1l-4 1l-10 9l-7 11l-1 5l-1 4c0 6 2.33301 12.333 7 19l17 17l5 5l6 4l3 2l2 2l144 90h40z" />
    <glyph glyph-name="colon" unicode=":" horiz-adv-x="278" 
d="M141 461c14.667 0 27.332 -5.16895 37.999 -15.502s16 -23.166 16 -38.499s-5.16699 -28.166 -15.5 -38.499s-23.166 -15.5 -38.499 -15.5s-28.166 5.16699 -38.499 15.5s-15.5 23.166 -15.5 38.499c0 14.667 5.16699 27.334 15.5 38.001s23.166 16 38.499 16z
M139.998 94.998c15.333 0 28.335 -5.66895 39.002 -17.002s16 -23.666 16 -36.999c0 -14 -5.33301 -27 -16 -39c-12 -10.667 -25 -16 -39 -16c-14.667 0 -27.334 5.33301 -38.001 16s-16 23.667 -16 39c0 14.667 5.16699 27.334 15.5 38.001s23.166 16 38.499 16z" />
    <glyph glyph-name="semicolon" unicode=";" horiz-adv-x="278" 
d="M138 461c15.333 0 28.166 -5.00098 38.499 -15.001s15.5 -22.667 15.5 -38s-5.16699 -28.166 -15.5 -38.499s-23.166 -15.5 -38.499 -15.5c-16 0 -29.167 5.5 -39.5 16.5s-15.5 23.5 -15.5 37.5c0 14.667 5.5 27.167 16.5 37.5s23.833 15.5 38.5 15.5zM69 -167.001
v22.0029c33.333 10.667 59.333 27.667 78 51s28 48 28 74c0 5.33301 -1.66699 10.666 -5 15.999c-0.666992 1.33301 -2.66699 2.66602 -6 3.99902c-6 0 -14 -3 -24 -9c-6.66699 -3.33301 -12.667 -5 -18 -5c-15.333 0 -28.333 4.66699 -39 14c-9.33301 10.667 -14 24 -14 40
c0 15.333 6 29 18 41c13.333 11.333 28.333 17 45 17c22 0 41 -9.66699 57 -29c17.333 -18.667 26 -43.334 26 -74.001c0 -32.667 -11.333 -63.167 -34 -91.5s-60 -51.833 -112 -70.5z" />
    <glyph glyph-name="less" unicode="&#x3c;" horiz-adv-x="564" 
d="M19 345l525 227v-42l-452 -197l452 -198v-44l-525 230v24z" />
    <glyph glyph-name="equal" unicode="=" 
d="M477 620v17.001h234v-17h-24c-26 0 -46.333 -9.66699 -61 -29c-6.66699 -8.66699 -10 -29.667 -10 -63v-242c0 -62.667 -6.5 -109.667 -19.5 -141s-39 -58.833 -78 -82.5s-91.5 -35.5 -157.5 -35.5c-72 0 -126.5 11 -163.5 33s-63.833 52.667 -80.5 92
c-10 26 -15 74.667 -15 146v233c0 36 -6 60 -18 72c-9.33301 11.333 -27.333 17 -54 17h-25v17h287v-17h-26c-28 0 -46.833 -6.83301 -56.5 -20.5s-14.5 -36.5 -14.5 -68.5v-260c0 -26 2.5 -53.333 7.5 -82s13.333 -50.834 25 -66.501s29.5 -29.5 53.5 -41.5l40 -13l46 -4
c42 0 80.167 8.33301 114.5 25s58 38.5 71 65.5s19.5 72.167 19.5 135.5v241c0 38 -4.33301 61.667 -13 71c-13.333 12 -32.333 18 -57 18h-25zM200 790.001c14 0 26.168 -4.66797 36.501 -14.001s15.5 -20.666 15.5 -33.999c0 -14.667 -4.66699 -27 -14 -37
c-8 -10 -19 -15 -33 -15s-26.667 4.33301 -38 13c-10 9.33301 -15 21 -15 35s4.66699 26.167 14 36.5s20.666 15.5 33.999 15.5zM525.001 790l5.99902 1h5c12 0 22.833 -3.5 32.5 -10.5s15.834 -16.5 18.501 -28.5l1 -10c0 -11.333 -4 -22.333 -12 -33s-18.333 -17 -31 -19
c-14 -2 -26 0 -36 6s-17 14.333 -21 25l-3 19c0 12 3.66699 22.667 11 32s17 15.333 29 18zM109 920h456v-50h-444z" />
    <glyph glyph-name="greater" unicode="&#x3e;" horiz-adv-x="564" 
d="M543 319l-525 -228v42l453 197l-453 198v44l525 -229v-24z" />
    <glyph glyph-name="question" unicode="?" horiz-adv-x="444" 
d="M222 156l-20.001 -0.00195312c0 20 1.33301 38.5 4 55.5s6.33398 32.667 11.001 47s10.834 30.333 18.501 48s18.167 38.834 31.5 63.501l23.5 48.5c6.33301 13.667 11 25.167 14 34.5s5.16699 19.333 6.5 30s2 21.334 2 32.001c0 41.333 -11 74 -33 98
c-20.667 24.667 -47.334 37 -80.001 37c-29.333 0 -52 -6.66699 -68 -20s-24 -28 -24 -44c0 -11.333 5 -26 15 -44s15 -31.333 15 -40c0 -12 -3.83301 -22 -11.5 -30s-16.834 -12 -27.501 -12c-13.333 0 -25.666 7 -36.999 21s-17 32.667 -17 56c0 36 15.833 68.333 47.5 97
s74.5 43 128.5 43c66.667 0 116 -19.333 148 -58c23.333 -29.333 35 -61.333 35 -96c0 -20.667 -5.33301 -45 -16 -73c-10.667 -24 -30.667 -53.333 -60 -88c-46.667 -52.667 -75.667 -90.667 -87 -114c-6 -12.667 -10.667 -26 -14 -40s-5 -31.333 -5 -52zM214.999 95.998
c14.667 0 27.5 -5.50098 38.5 -16.501s16.5 -23.833 16.5 -38.5c0 -13.333 -5.33301 -25.666 -16 -36.999s-23.667 -17 -39 -17c-14 0 -27 5 -39 15c-10 11.333 -15 24.333 -15 39s5 27.667 15 39c12 10.667 25 16 39 16z" />
    <glyph glyph-name="at" unicode="@" 
d="M458 222l-257 0.000976562l-45 -105c-10.667 -28 -16 -47 -16 -57s4.33301 -19 13 -27c9.33301 -6 30.333 -11 63 -15v-18h-208v18c27.333 5.33301 45.333 11.666 54 18.999c16 16 34.333 47.667 55 95l233 545h17l230 -551c20 -44 36.667 -72.667 50 -86
c6.66699 -6 16 -11.667 28 -17c11.333 -3.33301 23.333 -5 36 -5v-18h-261v18c24.667 0 42 4 52 12s15 17.667 15 29c0 14.667 -6.33301 37 -19 67zM444 258.001l-112 267l-116 -267h228zM513 895.001l-125 -167h-62l-124 167h34l121 -103l122 103h34z" />
    <glyph glyph-name="A" unicode="A" 
d="M458 222l-257 0.000976562l-45 -105c-9.33301 -26.667 -14.666 -45.667 -15.999 -57c0 -10 4.33301 -19 13 -27c9.33301 -6 30.333 -11 63 -15v-18h-208v18c27.333 5.33301 45.333 11.666 54 18.999c16 16 34.333 47.667 55 95l233 545h17l230 -551
c20 -44 36.667 -72.667 50 -86c5.33301 -5.33301 14.666 -11 27.999 -17c12 -3.33301 24 -5 36 -5v-18h-261v18c23.333 0 40.333 4 51 12s16 17.667 16 29c0 14.667 -6.33301 37 -19 67zM444 258.001l-112 267l-116 -267h228z" />
    <glyph glyph-name="B" unicode="B" horiz-adv-x="667" 
d="M462 338c46.667 -10 81 -25.667 103 -47c31.333 -30 47 -66.667 47 -110c0 -32 -10.167 -63.167 -30.5 -93.5s-48.666 -52.5 -84.999 -66.5s-92.166 -21 -167.499 -21h-312v18h25c26 0 45.667 8.66699 59 26c7.33301 12.667 11 37 11 73v428
c0 42.667 -4.66699 68.667 -14 78c-13.333 14 -32 21 -56 21h-25v18h286c51.333 0 97.666 -4.5 138.999 -13.5s75 -29 101 -60s39 -65.5 39 -103.5c0 -34 -10.333 -63.667 -31 -89c-18.667 -24.667 -48.334 -44 -89.001 -58zM206 364l41 -5.00098l51 -2
c47.333 0 83 5 107 15s42.333 25.833 55 47.5s19 44.834 19 69.501c0 39.333 -15.333 72.5 -46 99.5s-77 40.5 -139 40.5c-34.667 0 -64 -3.33301 -88 -10v-255zM206 47.999c39.333 -8.66699 76.668 -13 112.001 -13c58 0 103 13 135 39c30.667 27.333 46 60.333 46 99
c0 24.667 -7 49 -21 73s-36.833 43 -68.5 57s-70.834 21 -117.501 21l-51 -1l-35 -4v-271z" />
    <glyph glyph-name="C" unicode="C" horiz-adv-x="667" 
d="M602 677l15.002 -224.999h-15c-19.333 66 -47.833 114.167 -85.5 144.5s-82.834 45.5 -135.501 45.5c-44.667 0 -84.167 -11 -118.5 -33s-62.5 -57.667 -84.5 -107c-4.66699 -11.333 -8.83398 -23.166 -12.501 -35.499s-7 -27 -10 -44s-5.16699 -33.167 -6.5 -48.5
s-2 -33.333 -2 -54c0 -60.667 9.66699 -112.834 29 -156.501s48.5 -77.167 87.5 -100.5s82.833 -35 131.5 -35c42.667 0 81 9.16699 115 27.5s69.667 54.833 107 109.5l15 -10c-32.667 -58 -71.5 -100.833 -116.5 -128.5s-97.5 -41.5 -157.5 -41.5
c-110 0 -194.667 40.667 -254 122c-45.333 60.667 -68 132 -68 214c0 65.333 14.833 126.166 44.5 182.499s70.167 99.333 121.5 129s108.333 44.5 171 44.5c48.667 0 96 -11.667 142 -35c9.33301 -5.33301 19 -9 29 -11c8 0 15.667 3.33301 23 10l9 12l9 24h17z" />
    <glyph glyph-name="D" unicode="D" 
d="M17 0v17.998h25c26 0 46 9 60 27c6.66699 13.333 10 37.333 10 72v428c0 41.333 -4.33301 67.333 -13 78c-13.333 14 -32.333 21 -57 21h-25v18h270c98.667 0 173.5 -11.167 224.5 -33.5s92.5 -59.666 124.5 -111.999s48 -113.166 48 -182.499
c0 -90 -28 -166.667 -84 -230c-62 -69.333 -157.667 -104 -287 -104h-296zM206 47.998c43.333 -9.33301 78 -14 104 -14c74.667 0 137.167 26.667 187.5 80s75.5 125.333 75.5 216c0 89.333 -25 160.833 -75 214.5s-114 80.5 -192 80.5l-47 -3
c-6.66699 -0.666992 -14.667 -2 -24 -4s-19 -4.33301 -29 -7v-563z" />
    <glyph glyph-name="E" unicode="E" horiz-adv-x="611" 
d="M209 626l0.00195312 -262.001h145c37.333 0 62.666 5.66699 75.999 17c18.667 16.667 28 43 28 79h19v-230h-19c-4 34 -8.66699 55.333 -14 64c-4.66699 10 -14.5 18.333 -29.5 25s-35.167 10 -60.5 10h-145v-219c0 -30 1 -47.667 3 -53s6.33301 -10.166 13 -14.499
s19.667 -6.5 39 -6.5h112c36.667 0 63.5 2.5 80.5 7.5s33.5 15.5 49.5 31.5c7.33301 7.33301 12.666 13 15.999 17s8.33301 11 15 21l31 53h20l-57 -166h-510v18h23c16.667 0 31.334 3.66699 44.001 11c10 4 17 11.333 21 22s6 32.667 6 66v430c0 42 -4 68 -12 78
c-12.667 12.667 -32.334 19 -59.001 19h-23v18h510l7 -145h-19c-7.33301 37.333 -15 61.333 -23 72c-7.33301 12 -19.666 22 -36.999 30c-12.667 4.66699 -35.334 7 -68.001 7h-182z" />
    <glyph glyph-name="F" unicode="F" horiz-adv-x="556" 
d="M205 626v-259.998h120c26.667 0 46.667 6 60 18s22.333 36.333 27 73h18v-225h-18c0 25.333 -3.66699 44.333 -11 57c-4 12 -12.167 21 -24.5 27s-29.5 9 -51.5 9h-120v-208c0 -33.333 1.5 -54.5 4.5 -63.5s11.167 -17.5 24.5 -25.5c14.667 -6.66699 28.667 -10 42 -10
h24v-18h-284v18h24c25.333 0 45 8 59 24c8 10 12 35 12 75v428c0 34.667 -2.33301 56.667 -7 66c-2 8.66699 -8.66699 15.667 -20 21c-13.333 8 -28 12 -44 12h-24v18h493l6 -145h-17c-8 29.333 -18 51.666 -30 66.999c-8.66699 13.333 -21.5 23.666 -38.5 30.999
s-43.167 11 -78.5 11h-146z" />
    <glyph glyph-name="G" unicode="G" 
d="M614 677l16.999 -209.001h-17c-16 52 -38.333 91.333 -67 118c-39.333 38 -90 57 -152 57c-84 0 -148 -33.333 -192 -100c-37.333 -56.667 -56 -123.667 -56 -201c0 -61.333 12 -118.166 36 -170.499s56.333 -91 97 -116s81.334 -37.5 122.001 -37.5c23.333 0 47 3 71 9
s46 15.333 66 28v191c0 32.667 -2.5 54 -7.5 64s-12.833 18 -23.5 24s-29.334 9 -56.001 9v18h256v-18h-12c-25.333 0 -42.666 -8.66699 -51.999 -26c-6.66699 -11.333 -10 -35 -10 -71v-203c-33.333 -18 -69.5 -32.167 -108.5 -42.5s-80.5 -15.5 -124.5 -15.5
c-128 0 -225 41 -291 123c-50 61.333 -75 132.333 -75 213c0 57.333 14 113 42 167c32 64.667 77.667 113.667 137 147c48 28 105.333 42 172 42c22 0 43.667 -2 65 -6l34 -9l21 -6c9.33301 -2.66699 20.5 -6.5 33.5 -11.5s23.833 -8.16699 32.5 -9.5c6 0 11 3 15 9
c4 4 7 15 9 33h18z" />
    <glyph glyph-name="H" unicode="H" 
d="M206 355l307.002 -0.00292969v189v12c0 27.333 -1.66699 44.666 -5 51.999c-3.33301 10 -10.666 18 -21.999 24c-13.333 8 -28 12 -44 12h-24v18h284v-18h-24c-16.667 0 -31.334 -3.66699 -44.001 -11c-8.66699 -4 -16 -12 -22 -24c-3.33301 -12 -5 -33.667 -5 -65v-427
c0 -33.333 1.66699 -54.666 5 -63.999s11 -17.666 23 -24.999c13.333 -6.66699 27.666 -10 42.999 -10h24v-18h-284v18h24c25.333 0 45 8 59 24c8 10 12 35 12 75v202h-307v-202c0 -33.333 1.66699 -54.666 5 -63.999s11 -17.666 23 -24.999
c13.333 -6.66699 27.666 -10 42.999 -10h24v-18h-284v18h24c25.333 0 45 8 59 24c8 10 12 35 12 75v427c0 34.667 -2.33301 57 -7 67c-2 8.66699 -8.66699 15.667 -20 21c-14 8 -28.667 12 -44 12h-24v18h284v-18h-24c-17.333 0 -32.333 -3.66699 -45 -11
c-8 -4 -15 -12 -21 -24c-3.33301 -12 -5 -33.667 -5 -65v-189z" />
    <glyph glyph-name="I" unicode="I" horiz-adv-x="333" 
d="M309 18v-18h-284v18h23c26 0 46 8 60 24c8 10 12 35 12 75v428c0 33.333 -2 54.666 -6 63.999s-11 17 -21 23c-14 8 -29 12 -45 12h-23v18h284v-18h-24c-26 0 -45.667 -8 -59 -24c-8.66699 -10.667 -13 -35.667 -13 -75v-428c0 -33.333 2 -54.666 6 -63.999
s12 -17.5 24 -24.5s26 -10.5 42 -10.5h24z" />
    <glyph glyph-name="J" unicode="J" horiz-adv-x="389" 
d="M100 644l0.000976562 18h283v-18h-24c-25.333 0 -45 -8 -59 -24c-7.33301 -9.33301 -11 -34.333 -11 -75v-324c0 -49.333 -5.5 -89.833 -16.5 -121.5s-30 -58.667 -57 -81s-59.167 -33.5 -96.5 -33.5c-30.667 0 -54.667 7.16699 -72 21.5s-26 32.166 -26 53.499
c0 16 4 28 12 36c11.333 10 23.666 15 36.999 15c10 0 19.333 -3.33301 28 -10c7.33301 -7.33301 18 -25.666 32 -54.999c6 -17.333 15.667 -26 29 -26c8 0 16 5 24 15s12 29.333 12 58v452c0 34.667 -2.33301 56.667 -7 66c-2 8.66699 -8.66699 15.667 -20 21
c-14 8 -28.667 12 -44 12h-24z" />
    <glyph glyph-name="K" unicode="K" 
d="M299 367l244.001 -242.002c38 -38.667 72.333 -66.334 103 -83.001l41 -16c7.33301 -2 12.833 -3.33301 16.5 -4s12.5 -2 26.5 -4v-18h-314v18c16.667 0 30 3 40 9c8.66699 6.66699 13 14 13 22c0 6.66699 -1.66699 13 -5 19c-2 6 -12 18 -30 36l-229 227v-214
c0 -33.333 1.83301 -54.5 5.5 -63.5s11.5 -17.5 23.5 -25.5c13.333 -6.66699 27.333 -10 42 -10h23v-18h-282v18h23c26 0 46 8 60 24c7.33301 10.667 11 35.667 11 75v428v11c0 27.333 -1.66699 44.666 -5 51.999c-2.66699 10 -9.66699 18 -21 24c-14 8 -29 12 -45 12h-23
v18h282v-18h-23c-15.333 0 -30 -3.66699 -44 -11c-10 -4 -17 -11.333 -21 -22s-6 -32.667 -6 -66v-203l67 62c96 88 154.333 147.333 175 178c2 2.66699 4.66699 7.33398 8 14.001s5 13.334 5 20.001c0 6 -3.33301 12.167 -10 18.5s-18 9.5 -34 9.5h-16v18h244v-18
c-14.667 0 -27.834 -1.66699 -39.501 -5s-26.167 -10.666 -43.5 -21.999c-16 -9.33301 -36.667 -25.666 -62 -48.999l-99 -100z" />
    <glyph glyph-name="L" unicode="L" horiz-adv-x="611" 
d="M573 183l16.001 -2.99805l-56 -180h-513v18h25c28 0 48 9 60 27c6.66699 11.333 10 35.666 10 72.999v427c0 41.333 -4.33301 67.333 -13 78c-13.333 14 -32.333 21 -57 21h-25v18h300v-18c-36 0 -60.5 -3.16699 -73.5 -9.5s-22.5 -15 -28.5 -26s-9 -35.833 -9 -74.5
v-416c0 -28 2.16699 -45.833 6.5 -53.5s10.833 -13.334 19.5 -17.001s34 -5.5 76 -5.5h48c53.333 0 89.666 3.83301 108.999 11.5s37.5 21 54.5 40s33.833 48.833 50.5 89.5z" />
    <glyph glyph-name="M" unicode="M" horiz-adv-x="889" 
d="M409 0l-256.001 556.999v-442c0 -39.333 5 -65.333 15 -78s28.667 -19 56 -19h23v-18h-230v18h23c27.333 0 47.333 8.33301 60 25c6.66699 13.333 10 37.333 10 72v432c0 28.667 -2.66699 48.834 -8 60.501s-14.166 20.667 -26.499 27s-31.833 9.5 -58.5 9.5v18h187
l240 -518l237 518h187v-18h-23c-28 0 -48 -8.33301 -60 -25c-7.33301 -11.333 -11 -35.333 -11 -72v-432c0 -40.667 4.66699 -66 14 -76c12 -14 31 -21 57 -21h23v-18h-281v18h23c28 0 48 8.33301 60 25c7.33301 11.333 11 35.333 11 72v442l-256 -557h-16z" />
    <glyph glyph-name="N" unicode="N" 
d="M-13 662h180l404 -496v381c0 40 -4.33301 65.667 -13 77c-12 13.333 -31.333 20 -58 20h-22v18h230v-18h-23c-28 0 -48 -8.33301 -60 -25c-7.33301 -11.333 -11 -35.333 -11 -72v-558h-17l-437 533v-407c0 -40 4.33301 -65.333 13 -76c13.333 -14 32.333 -21 57 -21h24
v-18h-231v18h23c29.333 0 49.333 8.33301 60 25c7.33301 11.333 11 35.333 11 72v460l-25 28l-19 17l-19 9l-26 11c-4 1.33301 -8.66699 2.33301 -14 3s-14.333 1 -27 1v18z" />
    <glyph glyph-name="O" unicode="O" 
d="M366 677c86 0 160.5 -32.668 223.5 -98.001s94.5 -146.666 94.5 -243.999c0 -99.333 -31.833 -182.5 -95.5 -249.5s-140.5 -100.5 -230.5 -100.5s-166.333 32 -229 96s-94 148 -94 252s36 190 108 258c62.667 57.333 137 86 223 86zM356 641.999
c-57.333 0 -104.666 -22 -141.999 -66c-44.667 -54.667 -67 -135 -67 -241s23 -189 69 -249c35.333 -44 82.333 -66 141 -66c33.333 0 62 5.66699 86 17s46.667 29.666 68 54.999c40.667 50.667 61 127.334 61 230.001c0 114 -22.333 198.333 -67 253
c-36.667 44.667 -86.334 67 -149.001 67z" />
    <glyph glyph-name="P" unicode="P" horiz-adv-x="556" 
d="M205 310l-0.000976562 -192.999c0 -42 4.66699 -67.667 14 -77c12.667 -14.667 31.334 -22 56.001 -22h25v-18h-283v18h25c26 0 46 9 60 27c6 10 9 34 9 72v428c0 41.333 -4.33301 67.333 -13 78c-13.333 14 -32 21 -56 21h-25v18h242
c58.667 0 105.167 -5.83301 139.5 -17.5s63.333 -32.334 87 -62.001s35.5 -64.167 35.5 -103.5c0 -54 -17.833 -98 -53.5 -132s-86.167 -51 -151.5 -51h-24l-38 5l-24 3zM204.999 338.001l46 -6.99805l34 -3c32.667 0 62 13 88 39c24.667 28.667 37 62.667 37 102
c0 27.333 -5.83301 53.166 -17.5 77.499s-28.667 43.166 -51 56.499s-46.5 20 -72.5 20c-10 0 -19.5 -0.666992 -28.5 -2s-20.833 -4 -35.5 -8v-275z" />
    <glyph glyph-name="Q" unicode="Q" 
d="M440 -7c15.333 -27.333 32.666 -51.999 51.999 -73.999c16.667 -19.333 35.334 -36.5 56.001 -51.5s41.834 -26.667 63.501 -35s44.5 -12.5 68.5 -12.5v-16c-44 0 -92 9.33301 -144 28c-52 16 -101.333 39 -148 69s-85.334 60.667 -116.001 92c-46 18 -83 38 -111 60
c-40 30 -71 68.167 -93 114.5s-33 101.5 -33 165.5c0 98 31.833 179.833 95.5 245.5s141.5 98.5 233.5 98.5c86.667 0 161.667 -32.667 225 -98c30 -30.667 53.333 -67.167 70 -109.5s25 -88.5 25 -138.5c0 -81.333 -22.333 -152.333 -67 -213
s-103.667 -102.334 -177 -125.001zM358 640.001c-57.333 0 -105.002 -21.333 -143.002 -64c-45.333 -53.333 -68 -134.333 -68 -243c0 -106 23 -188.667 69 -248c36.667 -44.667 84 -67 142 -67c62 0 111.333 22.333 148 67c44 53.333 66 131 66 233c0 41.333 -3 78 -9 110
c-4.66699 32 -13.667 62 -27 90c-17.333 40 -42 70.333 -74 91c-15.333 10 -31.666 17.667 -48.999 23s-35.666 8 -54.999 8z" />
    <glyph glyph-name="R" unicode="R" horiz-adv-x="667" 
d="M676 0h-177.001l-224 310l-41 -1h-13l-15 1v-193c0 -42 4.33301 -67.667 13 -77c12.667 -14.667 31.334 -22 56.001 -22h26v-18h-284v18h25c28 0 48 9 60 27c6.66699 10 10 34 10 72v428c0 41.333 -4.33301 67.333 -13 78c-13.333 14 -32.333 21 -57 21h-25v18h241
c72 0 124 -5.33301 156 -16c32.667 -8 60.834 -26.167 84.501 -54.5s35.5 -61.5 35.5 -99.5c0 -41.333 -13 -76.5 -39 -105.5s-67.333 -50.5 -124 -64.5l136 -190l17 -22c10.667 -13.333 19.667 -24 27 -32c13.333 -14.667 25.666 -25.667 36.999 -33
c22 -14 51.333 -23 88 -27v-18zM205.999 340h15.999h11c62 0 109.333 13.5 142 40.5s49 61.833 49 104.5c0 40 -13 73.333 -39 100s-60.333 40 -103 40c-17.333 0 -42.666 -3 -75.999 -9v-276z" />
    <glyph glyph-name="S" unicode="S" horiz-adv-x="556" 
d="M458 677l-0.00390625 -229.001h-18c-4 42 -14.333 76.667 -31 104c-14.667 27.333 -36.667 48.333 -66 63c-13.333 7.33301 -27.166 13 -41.499 17s-29.166 6 -44.499 6c-34 0 -62 -10.667 -84 -32c-22 -20 -33 -43 -33 -69c0 -18 7 -36.667 21 -56
c18.667 -22.667 66.667 -55 144 -97c34.667 -17.333 61 -32 79 -44c20 -12 36 -23 48 -33c21.333 -16 38.333 -36.5 51 -61.5s19 -50.5 19 -76.5c0 -50 -19.333 -93.167 -58 -129.5s-88.667 -54.5 -150 -54.5c-7.33301 0 -15 0.166992 -23 0.5s-18.333 1.5 -31 3.5l-63 18
c-31.333 10 -51.333 15 -60 15c-8 0 -14.667 -2.33301 -20 -7c-3.33301 -5.33301 -6.66602 -15.333 -9.99902 -30h-18v227h18c8 -47.333 18.833 -82.5 32.5 -105.5s35.834 -43.167 66.501 -60.5c30.667 -15.333 63.334 -23 98.001 -23c40 0 72 10.833 96 32.5
s36 46.834 36 75.501c0 17.333 -4.66699 33.333 -14 48c-8 16 -22 32 -42 48c-7.33301 6 -42 26.667 -104 62l-72 42l-49 34c-24 20 -42 41 -54 63s-18 47 -18 75c0 46 18 86.667 54 122c17.333 17.333 38.333 30.333 63 39s50 13 76 13c17.333 0 33.833 -1.66699 49.5 -5
s27 -6.16602 34 -8.49902s16.5 -6.5 28.5 -12.5l39 -12c7.33301 0 13.666 2.33301 18.999 7c5.33301 3.33301 10 13.666 14 30.999h18z" />
    <glyph glyph-name="T" unicode="T" horiz-adv-x="611" 
d="M579 662l7 -155h-19c-1.33301 8.66699 -2.33301 17.667 -3 27c-2 12 -5.66699 22.333 -11 31c-10 19.333 -23.5 33.5 -40.5 42.5s-39.167 13.5 -66.5 13.5h-93v-506c0 -41.333 4.33301 -66.666 13 -75.999c12 -14 31 -21 57 -21h23v-18h-280v18h23
c27.333 0 47.333 8.33301 60 25c6.66699 13.333 10 37.333 10 72v506h-79c-33.333 0 -56.333 -2.66699 -69 -8c-14 -4.66699 -27.667 -16.334 -41 -35.001c-10 -16 -17 -39.667 -21 -71h-19l8 155h541z" />
    <glyph glyph-name="U" unicode="U" 
d="M477 644l-0.00292969 18.001h234v-18h-24c-24.667 0 -45 -11 -61 -33c-6.66699 -11.333 -10 -34.666 -10 -69.999v-269c0 -68.667 -6.66699 -120.834 -20 -156.501s-39.666 -66.5 -78.999 -92.5s-91.333 -39 -156 -39c-72 0 -126.5 12.5 -163.5 37.5
s-63.833 58.833 -80.5 101.5c-10 29.333 -15 83.666 -15 162.999v259c0 39.333 -5.66699 65.666 -17 78.999s-29.666 20 -54.999 20h-25v18h287v-18h-26c-28.667 0 -47.667 -7.66699 -57 -23s-14 -40.666 -14 -75.999v-289c0 -28 2.5 -58 7.5 -90s13.167 -57.333 24.5 -76
c11.333 -16.667 29.333 -32 54 -46l39 -13c15.333 -3.33301 31 -5 47 -5c42 0 80.333 9.16699 115 27.5s58.334 42.5 71.001 72.5s19 80.333 19 151v268c0 41.333 -4.33301 67.333 -13 78c-13.333 14 -32.333 21 -57 21h-25z" />
    <glyph glyph-name="V" unicode="V" 
d="M710 662v-18.002c-23.333 -4 -41 -11.333 -53 -22c-16 -16 -31.333 -40.667 -46 -74l-231 -563h-18l-248 571c-12.667 28.667 -21.667 46.334 -27 53.001c-7.33301 9.33301 -17 17 -29 23c-10 6 -26.333 10 -49 12v18h270v-18
c-30.667 -3.33301 -50.5 -8.66602 -59.5 -15.999s-13.5 -16.666 -13.5 -27.999c0 -18.667 7.66699 -44.334 23 -77.001l168 -388l156 384c15.333 38.667 23 64.667 23 78c0 9.33301 -4.16699 18 -12.5 26s-24.833 14.667 -49.5 20l-8 1v18h204z" />
    <glyph glyph-name="W" unicode="W" horiz-adv-x="944" 
d="M936 662v-18.002c-16 0 -29.833 -3 -41.5 -9s-22.167 -17.667 -31.5 -35c-6 -10 -16 -37 -30 -81l-185 -534h-20l-150 423l-150 -423h-18l-197 550l-18 48l-11 26l-10 13l-15 13c-11.333 6 -26.666 9 -45.999 9v18h245v-18h-11c-18 0 -31 -3.66699 -39 -11
s-13 -17 -15 -29c0 -11.333 7.33301 -37.666 22 -78.999l130 -371l110 316l-19 55l-16 45c-4.66699 12.667 -8.33398 20.667 -11.001 24l-11 17c-4 6.66699 -9.66699 12.334 -17 17.001c-6 5.33301 -13.333 9.33301 -22 12l-31 4v18h257v-18h-17
c-16.667 0 -29.667 -3.83301 -39 -11.5s-14 -18.167 -14 -31.5c0 -18.667 7.33301 -47.667 22 -87l127 -360l126 365c14.667 44 22 72 22 84c0 6 -2 12 -6 18s-11.167 11.333 -21.5 16s-25.833 7 -46.5 7v18h198z" />
    <glyph glyph-name="X" unicode="X" 
d="M408 367l142 -212.001c38 -58 67.333 -95.333 88 -112c9.33301 -7.33301 20.5 -13.333 33.5 -18s25.833 -7 38.5 -7v-18h-284v18c19.333 0 32.333 1.66699 39 5c8 2.66699 14 6.66699 18 12s7 12.333 9 21c0 6.66699 -1.33301 13 -4 19l-9 19
c-3.33301 7.33301 -9.66602 16.333 -18.999 27l-112 170l-139 -178l-26 -37l-4 -20c0 -10.667 4.66699 -19.667 14 -27s25.666 -11 48.999 -11v-18h-235v18c18 2 32 5.33301 42 10l30 15l29 20l34 33l28 32l157 198l-131 191c-34 50 -64 83.667 -90 101
c-11.333 7.33301 -24.666 13.666 -39.999 18.999c-8 2 -15.333 3.66699 -22 5s-14.334 2 -23.001 2v18h306v-18c-24 0 -41.333 -4 -52 -12s-16 -16.667 -16 -26c0 -11.333 7.66699 -28.666 23 -51.999l102 -152l117 149c13.333 16 21.333 27 24 33s4.66699 13.667 6 23
c0 6 -1.66699 11.833 -5 17.5s-9.5 10.334 -18.5 14.001s-24.833 5.5 -47.5 5.5v18h235v-18c-12 0 -20 -0.666992 -24 -2l-21 -7c-18 -6 -34 -16 -48 -30l-27 -27l-35 -43z" />
    <glyph glyph-name="Y" unicode="Y" 
d="M477 662l231.001 -0.000976562v-18h-13c-10 0 -23 -4 -39 -12s-30 -18 -42 -30s-28.667 -35.333 -50 -70l-160 -251v-166c0 -40.667 4.66699 -66 14 -76c12 -14 31.667 -21 59 -21h21v-18h-281v18h23c28 0 48 8.33301 60 25c7.33301 11.333 11 35.333 11 72v156l-182 278
l-44 61c-5.33301 5.33301 -21 15 -47 29c-8.66699 3.33301 -18.334 5 -29.001 5v18h283v-18h-14c-16.667 0 -31.167 -3.66699 -43.5 -11s-18.5 -18 -18.5 -32c0 -12 10 -33 30 -63l138 -214l130 204c19.333 30.667 29 53.667 29 69c0 7.33301 -2 15 -6 23
c-3.33301 4.66699 -10.333 10.334 -21 17.001c-10.667 4.66699 -23.667 7 -39 7v18z" />
    <glyph glyph-name="Z" unicode="Z" horiz-adv-x="611" 
d="M575 662l-435 -621.999h272c41.333 0 72.833 8.5 94.5 25.5s41.834 54.5 60.501 112.5l16 -3l-31 -175h-539v18l425 605h-212c-36 0 -61.333 -3.5 -76 -10.5s-26.334 -17.833 -35.001 -32.5s-17 -42.334 -25 -83.001h-18l13 165h490z" />
    <glyph glyph-name="bracketleft" unicode="[" 
d="M477 644l-0.00292969 18.001h234v-18h-24c-24.667 0 -45 -11 -61 -33c-6.66699 -11.333 -10 -34.666 -10 -69.999v-269c0 -68.667 -6.66699 -120.834 -20 -156.501s-39.666 -66.5 -78.999 -92.5s-91.333 -39 -156 -39c-72 0 -126.5 12.5 -163.5 37.5
s-63.833 58.833 -80.5 101.5c-10 29.333 -15 83.666 -15 162.999v259c0 39.333 -5.66699 65.666 -17 78.999s-29.666 20 -54.999 20h-25v18h287v-18h-26c-28.667 0 -47.667 -7.66699 -57 -23s-14 -40.666 -14 -75.999v-289c0 -28 2.5 -58 7.5 -90s13.167 -57.333 24.5 -76
c11.333 -16.667 29.333 -32 54 -46l39 -13c15.333 -3.33301 31 -5 47 -5c42 0 80.333 9.16699 115 27.5s58.334 42.5 71.001 72.5s19 80.333 19 151v268c0 41.333 -4.33301 67.333 -13 78c-13.333 14 -32.333 21 -57 21h-25zM90.9971 842.001h528v-68h-528v68z" />
    <glyph glyph-name="backslash" unicode="\" 
d="M477 620v17.001h234v-17h-24c-26 0 -46.333 -9.66699 -61 -29c-6.66699 -8.66699 -10 -29.667 -10 -63v-242c0 -62.667 -6.5 -109.667 -19.5 -141s-39 -58.833 -78 -82.5s-91.5 -35.5 -157.5 -35.5c-72 0 -126.5 11 -163.5 33s-63.833 52.667 -80.5 92
c-10 26 -15 74.667 -15 146v233c0 36 -6 60 -18 72c-9.33301 11.333 -27.333 17 -54 17h-25v17h287v-17h-26c-28 0 -46.833 -6.83301 -56.5 -20.5s-14.5 -36.5 -14.5 -68.5v-260c0 -26 2.5 -53.333 7.5 -82s13.333 -50.834 25 -66.501s29.5 -29.5 53.5 -41.5l40 -13l46 -4
c42 0 80.167 8.33301 114.5 25s58 38.5 71 65.5s19.5 72.167 19.5 135.5v241c0 38 -4.33301 61.667 -13 71c-13.333 12 -32.333 18 -57 18h-25zM200 790.001c14 0 26.168 -4.66797 36.501 -14.001s15.5 -20.666 15.5 -33.999c0 -14.667 -4.66699 -27 -14 -37
c-8 -10 -19 -15 -33 -15s-26.667 4.33301 -38 13c-10 9.33301 -15 21 -15 35s4.66699 26.167 14 36.5s20.666 15.5 33.999 15.5zM525.001 790l5.99902 1h5c12 0 22.833 -3.5 32.5 -10.5s15.834 -16.5 18.501 -28.5l1 -10c0 -11.333 -4 -22.333 -12 -33s-18.333 -17 -31 -19
c-14 -2 -26 0 -36 6s-17 14.333 -21 25l-3 19c0 12 3.66699 22.667 11 32s17 15.333 29 18zM367 862l-143.999 96.998l-8 3l-8 6l-19 15c-2.66699 4 -5.33398 10 -8.00098 18c0 12.667 2.83301 21.834 8.5 27.501s13.167 8.83398 22.5 9.50098l12 -2l14 -5
c6 -2 11.667 -5.66699 17 -11l15 -14l186 -168z" />
    <glyph glyph-name="bracketright" unicode="]" 
d="M477 644l-0.00292969 18.001h234v-18h-24c-24.667 0 -45 -11 -61 -33c-6.66699 -11.333 -10 -34.666 -10 -69.999v-269c0 -68.667 -6.66699 -120.834 -20 -156.501s-39.666 -66.5 -78.999 -92.5s-91.333 -39 -156 -39c-72 0 -126.5 12.5 -163.5 37.5
s-63.833 58.833 -80.5 101.5c-10 29.333 -15 83.666 -15 162.999v259c0 39.333 -5.66699 65.666 -17 78.999s-29.666 20 -54.999 20h-25v18h287v-18h-26c-28.667 0 -47.667 -7.66699 -57 -23s-14 -40.666 -14 -75.999v-289c0 -28 2.5 -58 7.5 -90s13.167 -57.333 24.5 -76
c11.333 -16.667 29.333 -32 54 -46l39 -13c15.333 -3.33301 31 -5 47 -5c42 0 80.333 9.16699 115 27.5s58.334 42.5 71.001 72.5s19 80.333 19 151v268c0 41.333 -4.33301 67.333 -13 78c-13.333 14 -32.333 21 -57 21h-25zM360.997 802.001l-143.999 90.998l-8 3l-8 6
l-19 15c-2.66699 4 -5.33398 10 -8.00098 18c0 12.667 2.83301 21.834 8.5 27.501s13.167 8.83398 22.5 9.50098l12 -2l14 -5c6 -2 11.667 -5.66699 17 -11l15 -14l210 -168z" />
    <glyph glyph-name="asciicircum" unicode="^" horiz-adv-x="438" 
d="M363 24v-18h-284v18h23c26 0 46 8 60 24c8 10 12 35 12 75v428c0 33.333 -2 54.666 -6 63.999s-11 17 -21 23c-14 8 -29 12 -45 12h-23v18h284v-18h-24c-26 0 -45.667 -8 -59 -24c-8.66699 -10.667 -13 -35.667 -13 -75v-428c0 -33.333 2 -54.666 6 -63.999
s12 -17.5 24 -24.5s26 -10.5 42 -10.5h24zM342 942l-138 -139l-23 -18c-8 -6 -16.667 -10 -26 -12h-5l-6 -1l-3 1l-4 1l-10 9l-7 11l-1 5l-1 4c0 6 2.33301 12.333 7 19l17 17l5 5l6 4l3 2l2 2l144 90h40z" />
    <glyph glyph-name="underscore" unicode="_" 
d="M477 620v17.001h234v-17h-24c-26 0 -46.333 -9.66699 -61 -29c-6.66699 -8.66699 -10 -29.667 -10 -63v-242c0 -62.667 -6.5 -109.667 -19.5 -141s-39 -58.833 -78 -82.5s-91.5 -35.5 -157.5 -35.5c-72 0 -126.5 11 -163.5 33s-63.833 52.667 -80.5 92
c-10 26 -15 74.667 -15 146v233c0 36 -6 60 -18 72c-9.33301 11.333 -27.333 17 -54 17h-25v17h287v-17h-26c-28 0 -46.833 -6.83301 -56.5 -20.5s-14.5 -36.5 -14.5 -68.5v-260c0 -26 2.5 -53.333 7.5 -82s13.333 -50.834 25 -66.501s29.5 -29.5 53.5 -41.5l40 -13l46 -4
c42 0 80.167 8.33301 114.5 25s58 38.5 71 65.5s19.5 72.167 19.5 135.5v241c0 38 -4.33301 61.667 -13 71c-13.333 12 -32.333 18 -57 18h-25zM200 790.001c14 0 26.168 -4.66797 36.501 -14.001s15.5 -20.666 15.5 -33.999c0 -14.667 -4.66699 -27 -14 -37
c-8 -10 -19 -15 -33 -15s-26.667 4.33301 -38 13c-10 9.33301 -15 21 -15 35s4.66699 26.167 14 36.5s20.666 15.5 33.999 15.5zM525.001 790l5.99902 1h5c12 0 22.833 -3.5 32.5 -10.5s15.834 -16.5 18.501 -28.5l1 -10c0 -11.333 -4 -22.333 -12 -33s-18.333 -17 -31 -19
c-14 -2 -26 0 -36 6s-17 14.333 -21 25l-3 19c0 12 3.66699 22.667 11 32s17 15.333 29 18z" />
    <glyph glyph-name="grave" unicode="`" 
d="M458 222l-257 0.000976562l-45 -105c-10.667 -28 -16 -47 -16 -57s4.33301 -19 13 -27c9.33301 -6 30.333 -11 63 -15v-18h-208v18c27.333 5.33301 45.333 11.666 54 18.999c16 16 34.333 47.667 55 95l233 545h17l230 -551c20 -44 36.667 -72.667 50 -86
c6.66699 -6 16 -11.667 28 -17c11.333 -3.33301 23.333 -5 36 -5v-18h-261v18c24.667 0 42 4 52 12s15 17.667 15 29c0 14.667 -6.33301 37 -19 67zM444 258.001l-112 267l-116 -267h228zM103 830.001h522v-68h-522v68z" />
    <glyph glyph-name="a" unicode="a" horiz-adv-x="500" 
d="M396 49c3.33301 -2.66699 9.66895 -5.00195 19.002 -7.00195c8.66699 0 17.667 2.33301 27 7c11.333 4 23.666 10.333 36.999 19v-25l-10 -11l-14 -11l-18 -14c-6.66699 -4 -13.334 -7 -20.001 -9l-15 -6l-15 -2c-28 0 -48.667 7.66699 -62 23
c-12.667 16.667 -19 34 -19 52l-36 -26l-37 -22l-47 -20c-10 -2.66699 -18.167 -4.5 -24.5 -5.5s-12.833 -1.5 -19.5 -1.5c-32 0 -60 10 -84 30c-22.667 20.667 -34 45.334 -34 74.001c0 40.667 16.5 72.667 49.5 96s71.833 44 116.5 62l58 20l52 18
c0 52 -4.83301 89 -14.5 111s-32.167 33 -67.5 33l-14 -1l-17 -3l-25 -9c-4.66699 -2.66699 -10.334 -7.66699 -17.001 -15l-4 -15l2 -20v-11l1 -12c0 -9.33301 -5 -19.666 -15 -30.999c-10.667 -8.66699 -22.334 -13 -35.001 -13c-14 0 -26.667 4 -38 12
c-8 8 -12 17.667 -12 29l1 9l2 10l4 9l5 9c16.667 27.333 42.334 47 77.001 59c36 10.667 70 16 102 16c60.667 0 102 -14 124 -42c8.66699 -12.667 16.334 -30.667 23.001 -54c5.33301 -23.333 8 -50 8 -80v-210c0 -8.66699 2 -16 6 -22zM267.003 250.998l-37 -13
c-28 -10 -55 -25 -81 -45c-25.333 -18 -38 -43 -38 -75c0 -21.333 6 -40.333 18 -57s32 -25 60 -25l22 4l31 12l20 10l18 11l12 10l8 9v172z" />
    <glyph glyph-name="b" unicode="b" horiz-adv-x="500" 
d="M64 612c-6 4 -19.002 6.00391 -39.002 6.00391h-8h-8v20c12 1.33301 20.333 3 25 5l23 6l20 5l19 6l63 22v-304c14 25.333 33.833 44.833 59.5 58.5s53.167 20.5 82.5 20.5c52 0 92 -19.167 120 -57.5s45 -81.5 51 -129.5l1 -15l1 -14
c0 -64.667 -21.167 -122.667 -63.5 -174s-98.166 -77 -167.499 -77h-6h-4h-16h-12c-5.33301 1.33301 -11.166 2.16602 -17.499 2.49902s-17.5 3.16602 -33.5 8.49902c-23.333 6 -46 17.333 -68 34c-4 3.33301 -7 7.66602 -9 12.999s-3 11.666 -3 18.999v493
c0 30 -3.33301 47.333 -10 52zM160.998 57.0039c2 -3.33301 6.99902 -7.66895 14.999 -13.002l10 -5l11 -5l15 -6l18 -4l14 -3h13c44 0 75 15.167 93 45.5s29.667 65.5 35 105.5v12l1 14v13c0 4.66699 -0.666992 10.334 -2 17.001l-3 32
c-6 34.667 -18.167 65.834 -36.5 93.501s-47.166 41.5 -86.499 41.5c-34 0 -59.667 -9 -77 -27c-14.667 -18.667 -22 -38.667 -22 -60v-224c0 -16 0.666992 -25 2 -27z" />
    <glyph glyph-name="c" unicode="c" horiz-adv-x="444" 
d="M335 37c-30 -31.333 -71.002 -47.002 -123.002 -47.002c-54 0 -98.667 21.667 -134 65s-53 96 -53 158c0 66.667 18.667 124 56 172s93.333 72 168 72c12 0 20 -0.666992 24 -2c10.667 0 19.667 -1.66699 27 -5c23.333 -6 45 -16.667 65 -32c22 -15.333 33 -35 33 -59
c0 -11.333 -4.66699 -21.166 -14 -29.499s-19.666 -13.166 -30.999 -14.499c-11.333 0 -21.166 4.16699 -29.499 12.5s-13.5 18.833 -15.5 31.5c0 20 -6.16699 36.5 -18.5 49.5s-31.833 19.5 -58.5 19.5c-38 0 -68.667 -16 -92 -48c-20 -32 -32 -67.333 -36 -106l-1 -10v-10
v-14l1 -13c4 -40.667 19 -78.834 45 -114.501s62.333 -53.5 109 -53.5c32.667 0 60.167 9.83301 82.5 29.5s41.833 42.167 58.5 67.5l14 -7c-20 -43.333 -45.667 -80.666 -77 -111.999z" />
    <glyph glyph-name="d" unicode="d" horiz-adv-x="500" 
d="M442 61c8 0 14.332 -0.666016 18.999 -1.99902h22h4h4v-15l-35 -11l-45 -16l-35 -13l-37 -17v73c-11.333 -20 -28 -36.333 -50 -49l-33 -15c-10 -4 -21.333 -6 -34 -6h-5h-5c-61.333 0 -107.666 22.667 -138.999 68s-47 95.666 -47 150.999v17c0 8 0.666992 13.667 2 17
c7.33301 53.333 29.333 102.333 66 147s84.334 67 143.001 67l26 -1c6 0 13.667 -2.33301 23 -7c14 -4 26 -10 36 -18l10 -7l7 -7v143c0 30 -2.33301 47.167 -7 51.5s-18.334 6.5 -41.001 6.5h-8h-9v20c12 1.33301 20.333 3 25 5l23 6l20 5l19 6l63 22v-592
c0 -15.333 6 -25 18 -29zM313.999 390.001c-16.667 24.667 -43.002 36.9971 -79.002 36.9971c-40 0 -70.667 -19.667 -92 -59c-10 -19.333 -17.667 -39.166 -23 -59.499s-8 -42.166 -8 -65.499c0 -65.333 13 -116.666 39 -153.999c13.333 -17.333 28 -30.333 44 -39
c4.66699 -2 12 -4.66699 22 -8s21.333 -5 34 -5c22.667 0 40.834 5.83301 54.501 17.5s23.834 25.167 30.501 40.5l2 10l1 10v185c0 35.333 -8.33301 65.333 -25 90z" />
    <glyph glyph-name="e" unicode="e" horiz-adv-x="500" 
d="M103 247l5.00391 -28.001c9.33301 -40.667 28 -78 56 -112s68.333 -51 121 -51c36 0 69.167 11.167 99.5 33.5s54.166 46.833 71.499 73.5l18 -5c-17.333 -45.333 -46.833 -84.666 -88.5 -117.999s-90.834 -50 -147.501 -50c-62.667 0 -113.834 22.333 -153.501 67
s-59.5 96.667 -59.5 156c0 71.333 20.833 129.833 62.5 175.5s97.167 68.5 166.5 68.5c61.333 0 109.666 -17.667 144.999 -53s53 -78.333 53 -129l-350 1zM310.004 385.999c-16 24 -43 36 -81 36s-67 -11.333 -87 -34c-18 -22 -30 -49 -36 -81l231 1c0 26 -9 52 -27 78z
" />
    <glyph glyph-name="f" unicode="f" horiz-adv-x="333" 
d="M205 31c5.33301 -4.66699 14.333 -8.99902 27 -12.999c7.33301 -2 14 -3.33301 20 -4s15.333 -1 28 -1v-13h-260v14c33.333 0 55.5 5.5 66.5 16.5s16.5 27.167 16.5 48.5v337h-82v32h82v23l2 25l6 47c8 37.333 27.167 69.666 57.5 96.999s65.166 41 104.499 41l13 -1h13
c14.667 -2 29.5 -6.83301 44.5 -14.5s28.167 -21.834 39.5 -42.501c0 -11.333 -3.66699 -21.666 -11 -30.999s-16.666 -14 -27.999 -14c-15.333 0 -26.333 3.33301 -33 10l-16 25l-2 4l-9 16c-4 6 -10 11 -18 15l-11 3l-11 2h-6l-8 -2l-4 -2c-12 -4 -21.667 -12 -29 -24
l-9 -39v-13v-13v-4v-108h121v-32h-121v-336c0 -22 5.66699 -38.333 17 -49z" />
    <glyph glyph-name="g" unicode="g" horiz-adv-x="500" 
d="M389 383l1.00293 -3.99902l11 -33c2 -8 3.33301 -15.167 4 -21.5s1 -16.166 1 -29.499c0 -36.667 -9.83301 -65.334 -29.5 -86.001s-42.167 -37 -67.5 -49l-33 -9l-29 -3h-11l-14 2l-4 1l-16 1l-9 1c-6.66699 -1.33301 -10.667 -2.66602 -12 -3.99902l-12 -9l-13 -11
l-11 -13l-9 -14l-3 -12c0 -8 5.33301 -14 16 -18l35 -7l14 -2h13l129 -5c13.333 0 26.666 -2 39.999 -6c12 -2.66699 23 -7.66699 33 -15c16.667 -12.667 28.667 -25.334 36 -38.001l9 -27l3 -21c0 -37.333 -15.833 -68.5 -47.5 -93.5s-67.834 -44.5 -108.501 -58.5l-53 -13
l-47 -4c-50 0 -92 9.16699 -126 27.5s-51 41.5 -51 69.5c0 20 10 41.667 30 65c18.667 18 41.334 36.667 68.001 56l-3 1l-20 10l-16 11c-9.33301 7.33301 -14 17.666 -14 30.999c0 10 4.33301 21.333 13 34s34 37.667 76 75c-30.667 13.333 -53.834 31 -69.501 53
s-23.5 47.667 -23.5 77c0 48 13.167 85.167 39.5 111.5s57.166 43.5 92.499 51.5l20 3l20 1l20 -1l19 -3l27 -8c5.33301 -0.666992 10.5 -2 15.5 -4s10.167 -4.33301 15.5 -7l29 -8l26 -2l77 1v-39h-83zM384.003 -131.999c32.667 18.667 49 41.332 49 67.999
c0 20.667 -11.333 34.334 -34 41.001l-41 6l-48 2l-30 1l-25 1h-17l-25 2l-33 3l-16 3l-17 3l-26 -31l-16 -27l-6 -14l-1 -16l1 -8l3 -10c6 -13.333 20.167 -25.5 42.5 -36.5s56.833 -16.5 103.5 -16.5c58.667 0 104 9.66699 136 29zM301.003 188.999
c10 10 17.001 21.667 21.001 35l6 26l1 19l-3 31c0 6.66699 -1.33301 14 -4 22l-7 25c-6 21.333 -16.167 40.666 -30.5 57.999s-33.5 26 -57.5 26h-4h-4c-16.667 -2 -32 -9.66699 -46 -23s-21 -35.666 -21 -66.999v-12l1 -12c0 -17.333 2 -33.333 6 -48s11 -31.667 21 -51
c15.333 -30 40.666 -45 75.999 -45c19.333 0 34.333 5.33301 45 16z" />
    <glyph glyph-name="h" unicode="h" horiz-adv-x="500" 
d="M61 613c-6.66699 3.33301 -23.332 5 -49.999 5l-2 20c12 1.33301 20 3 24 5l22 6l20 5l19 6l63 22v-304c17.333 21.333 38 39.833 62 55.5s51.333 23.5 82 23.5c49.333 0 82.666 -14.5 99.999 -43.5s26 -70.833 26 -125.5v-208c0 -22 4.33301 -38.333 13 -49
c4 -4.66699 10.333 -9 19 -13c5.33301 -2 9.66602 -3.33301 12.999 -4s9.33301 -1 18 -1v-13h-211v14c22.667 0 38.834 5.5 48.501 16.5s14.5 27.167 14.5 48.5v209c0 29.333 -3.83301 56 -11.5 80s-29.167 36 -64.5 36c-24.667 0 -44 -4.5 -58 -13.5s-27 -20.5 -39 -34.5
l-6 -6l-6 -6v-264c0 -22 4.33301 -38.333 13 -49c4 -4.66699 10.333 -9 19 -13c5.33301 -2 9.66602 -3.33301 12.999 -4s9.33301 -1 18 -1v-13h-211v14c22.667 0 38.834 5.5 48.501 16.5s14.5 27.167 14.5 48.5v481c0 30 -3.66699 47.667 -11 53z" />
    <glyph glyph-name="i" unicode="i" horiz-adv-x="278" 
d="M91 380c-4 11.333 -13 17 -27 17l-18 -2l-24 -5v15l161 53v-378c0 -20.667 5 -37 15 -49c12 -12 32.333 -18 61 -18v-13h-237v14c29.333 0 49.333 5.33301 60 16s16 27 16 49v243c0 28.667 -2.33301 48 -7 58zM97 666c10 10 22 15 36 15s26 -5 36 -15s15 -22 15 -36
s-5 -26 -15 -36s-22 -15 -36 -15s-26 5 -36 15s-15 22 -15 36c0 12 5 24 15 36z" />
    <glyph glyph-name="j" unicode="j" horiz-adv-x="278" 
d="M163 -159c-28.667 -38.667 -71.333 -57.998 -128 -57.998l-12 1l-11 1l-29 9c-10.667 4 -18.667 9.33301 -24 16l-7 11l-4 13l-1 4v4c0 7.33301 1.33301 13.666 4 18.999s7.66699 10.333 15 15l12 5l11 1l15 -3c4.66699 -2.66699 8.66699 -6.33398 12 -11.001l6 -9l8 -10
l16 -16l23 -14l7 -2l7 -1c10 0 18 6.16699 24 18.5s10 25.833 12 40.5l1 17l1 15v435c0 20 -2.16699 33.5 -6.5 40.5s-14.833 10.5 -31.5 10.5l-16 -1l-20 -2v15l159 53v-446c0 -75.333 -14.333 -132.333 -43 -171zM125.001 666.002c10 10 22 15 36 15s26 -5 36 -15
s15 -22 15 -36s-5 -26 -15 -36s-22 -15 -36 -15s-26 5 -36 15s-15 22 -15 36c0 12 5 24 15 36z" />
    <glyph glyph-name="k" unicode="k" horiz-adv-x="500" 
d="M64 616l-32 2h-18l-3 20c12 1.33301 20.333 3 25 5l23 6l20 5l19 6l63 22v-419l126 111l3 2l4 4l15 13l12 17v5c0 4.66699 -3.66699 9.33398 -11 14.001l-15 3l-24 1v15h204v-14c-30 0 -56 -5.66699 -78 -17c-23.333 -10.667 -44.333 -24.334 -63 -41.001l-24 -21
l-25 -24l-55 -50l145 -183l1 -3c16 -20 34.5 -38.667 55.5 -56s43.833 -26 68.5 -26v-13h-218v14c14 0 23.667 1.33301 29 4c3.33301 2.66699 6 7 8 13l-3 10l-5 9l-150 198v-168c0 -20.667 5 -37 15 -49c12 -12 32 -18 60 -18v-13h-235v14c30 0 50 5.16699 60 15.5
s15 26.833 15 49.5v501c0 22 -4 34 -12 36z" />
    <glyph glyph-name="l" unicode="l" horiz-adv-x="278" 
d="M87 616c-6 4.66699 -22 6.99902 -48 6.99902h-10h-9v15l36 6l39 10c13.333 2 22.333 4.66699 27 8l26 8l17 5l17 6v-601c0 -20.667 5 -37 15 -49c12 -12 32.667 -18 62 -18v-13h-239v14c30 0 50.333 5.33301 61 16s16 27 16 49v481c0 30.667 -3.33301 49.334 -10 56.001z
" />
    <glyph glyph-name="m" unicode="m" horiz-adv-x="778" 
d="M64 375c-8.66699 8.66699 -25.6641 13.002 -50.9971 13.002v18l148 52v-66l1 -8l3 -2l8 5l10 10l2 2l3 3l4 4l4 3c8.66699 6.66699 17.167 12.5 25.5 17.5s18.5 10.167 30.5 15.5c20 10 41.667 15 65 15c24.667 0 46 -8 64 -24s30.667 -36.333 38 -61l3 3l25 24l31 24
c20.667 14 43.334 24.333 68.001 31l14 2l15 1c53.333 0 87.333 -17.333 102 -52c2 -5.33301 4.66699 -13 8 -23s6.16602 -20.333 8.49902 -31s4.16602 -20.334 5.49902 -29.001s2 -18.334 2 -29.001v-14v-13v-186c0 -22 4.33301 -38.333 13 -49
c4 -4.66699 10.333 -9 19 -13c5.33301 -2 9.66602 -3.33301 12.999 -4s9.33301 -1 18 -1v-13h-211v14c22.667 0 38.834 5.5 48.501 16.5s14.5 27.167 14.5 48.5v204c0 46 -5.16699 77.667 -15.5 95s-31.166 26 -62.499 26c-22.667 0 -43.334 -5.66699 -62.001 -17
c-18.667 -10 -33.667 -24.667 -45 -44v-263c0 -22 4.33301 -38.333 13 -49c4 -4.66699 10.333 -9 19 -13c5.33301 -2 9.66602 -3.33301 12.999 -4s9.33301 -1 18 -1v-13h-211v14c22.667 0 38.834 5.5 48.501 16.5s14.5 27.167 14.5 48.5v209v13v15
c0 20.667 -5.33301 40.667 -16 60c-8 18.667 -25.667 28 -53 28l-15 -1l-16 -3c-16.667 -4 -32.334 -10.5 -47.001 -19.5s-27.334 -20.833 -38.001 -35.5v-265c0 -22 4.33301 -38.333 13 -49c4 -4.66699 10.333 -9 19 -13c5.33301 -2 9.66602 -3.33301 12.999 -4
s9.33301 -1 18 -1v-13h-211v14c22.667 0 38.834 5.5 48.501 16.5s14.5 27.167 14.5 48.5v243c0 26 -4 43.667 -12 53z" />
    <glyph glyph-name="n" unicode="n" horiz-adv-x="500" 
d="M61 389c-6 4.66699 -23.332 7 -51.999 7v15l148 47v-80l5 4c18 18 38.667 35 62 51s52 24 86 24c39.333 0 68.666 -13.5 87.999 -40.5s29 -67.167 29 -120.5v-216c0 -22 4.33301 -38.333 13 -49c4 -4.66699 10.333 -9 19 -13c5.33301 -2 9.66602 -3.33301 12.999 -4
s9.33301 -1 18 -1v-13h-211v14c22.667 0 38.834 5.5 48.501 16.5s14.5 27.167 14.5 48.5v216c0 28.667 -3.83301 54 -11.5 76s-29.167 33 -64.5 33c-22 0 -40 -4.66699 -54 -14c-16.667 -9.33301 -30.667 -19.666 -42 -30.999l-7 -7l-6 -6v-266
c0 -22 4.33301 -38.333 13 -49c4 -4.66699 10.333 -9 19 -13c5.33301 -2 9.66602 -3.33301 12.999 -4s9.33301 -1 18 -1v-13h-211v14c22.667 0 38.834 5.5 48.501 16.5s14.5 27.167 14.5 48.5v246c0 37.333 -3.66699 58.666 -11 63.999z" />
    <glyph glyph-name="o" unicode="o" horiz-adv-x="500" 
d="M410 65c-40 -50 -94.667 -74.999 -164 -74.999c-64 0 -116 22.667 -156 68s-60 98.333 -60 159c0 65.333 19 121.666 57 168.999s91 71 159 71c66 0 119.833 -20.167 161.5 -60.5s62.5 -93.5 62.5 -159.5c0 -62.667 -20 -120 -60 -172zM376 230.001l-6.00098 43.9971
c-8 38.667 -22.167 73.834 -42.5 105.501s-51.5 47.5 -93.5 47.5c-36 0 -63.667 -15.5 -83 -46.5s-29 -67.5 -29 -109.5c0 -38.667 2.66699 -71.667 8 -99s14.333 -54 27 -80c24.667 -48.667 60.334 -73 107.001 -73c38 0 66.667 17.667 86 53
c9.33301 18.667 16.333 37.334 21 56.001s7 39.334 7 62.001v15v12z" />
    <glyph glyph-name="p" unicode="p" horiz-adv-x="500" 
d="M69 381c-4 11.333 -17.6689 17 -41.002 17l-12 -1l-14 -1v15l158 47v-61v-11l3 1c2 5.33301 9.16699 13.833 21.5 25.5s28.833 22 49.5 31s44.667 13.5 72 13.5c55.333 0 96.5 -21.333 123.5 -64s40.5 -93 40.5 -151c0 -64.667 -19.833 -122.834 -59.5 -174.501
s-92.167 -77.5 -157.5 -77.5c-16 0 -33 4 -51 12c-16.667 8.66699 -30.667 19.334 -42 32.001v-171c0 -22 5.66699 -38.5 17 -49.5s33.333 -16.5 66 -16.5v-14h-241v14c14.667 0 26.334 1.66699 35.001 5c8.66699 2 16.334 6.33301 23.001 13c10 10 15 26 15 48v464
c0 24 -2 42 -6 54zM166.998 70c5.33301 -8 13 -15.333 23 -22l4 -4l4 -2c9.33301 -6 19.5 -11 30.5 -15s22.167 -6 33.5 -6c36 0 65.333 17.833 88 53.5s34 78.167 34 127.5l-1 29l-3 31c-5.33301 34.667 -17 66.5 -35 95.5s-47 43.5 -87 43.5c-12.667 0 -27 -3 -43 -9
c-12 -6 -24 -14 -36 -24l-10 -9l-5 -7l-4 -12v-17v-221c0 -12 2.33301 -22.667 7 -32z" />
    <glyph glyph-name="q" unicode="q" horiz-adv-x="500" 
d="M271 10c-24.667 -13.333 -50.335 -19.999 -77.002 -19.999c-57.333 0 -98.166 18.667 -122.499 56s-39.5 78.666 -45.5 123.999c0 10 -0.666992 17 -2 21v21c0 64.667 20.667 121.667 62 171s96 74 164 74l24 -1c8.66699 0 19.667 -2.33301 33 -7
c16 -4 33.667 -12 53 -24l48 31l5 1l4 1c1.33301 -0.666992 2.5 -1.5 3.5 -2.5l2.5 -2.5l2 -11v-4v-575c0 -22 5.5 -38.5 16.5 -49.5s29.833 -16.5 56.5 -16.5v-14h-241v14c17.333 0 31 1.66699 41 5c10.667 2 19.334 6.33301 26.001 13c10.667 10.667 16 26.667 16 48v197
c-16 -15.333 -39 -32 -69 -50zM339.999 326.001c0 21.333 -2 39.834 -6 55.501s-17.667 29.5 -41 41.5l-11 4l-10 3l-13 2l-14 1c-38.667 0 -68.5 -14.667 -89.5 -44s-34.833 -62.333 -41.5 -99l-3 -24l-1 -22c0 -56.667 10.667 -103.334 32 -140.001s52 -55 92 -55h12
c6 0 10 0.666992 12 2c12.667 2 24.167 5.16699 34.5 9.5s20.833 10.833 31.5 19.5l5 6l5 5c4 5.33301 6 11 6 17v19v6v6v183v4z" />
    <glyph glyph-name="r" unicode="r" horiz-adv-x="333" 
d="M70 373c-5.33301 14 -15.667 20.998 -31 20.998l-16 -2c-5.33301 0 -11.666 -1.33301 -18.999 -4v17l160 53v-90l9 14l13 17c11.333 12.667 25 25.5 41 38.5s33 19.5 51 19.5c17.333 0 31.166 -4.66699 41.499 -14s15.5 -22.666 15.5 -39.999v-4v-4l-1 -4
c-0.666992 -9.33301 -5 -17 -13 -23c-4.66699 -3.33301 -14 -6 -28 -8c-8.66699 0 -16 1.66699 -22 5l-15 13l-4 2l-2 3l-11 8l-13 4c-6.66699 -1.33301 -10.667 -2.66602 -12 -3.99902l-14 -11l-15 -16l-12 -18l-7 -16l-2 -13v-237c0 -20.667 5 -37 15 -49
c12 -12 32 -18 60 -18v-13h-235v14c30 0 50 5.16699 60 15.5s15 26.833 15 49.5v219c0 36 -3 61 -9 75z" />
    <glyph glyph-name="s" unicode="s" horiz-adv-x="389" 
d="M61 153c6 -35.333 19.0029 -68.002 39.0029 -98.002c10 -14 22.5 -24.667 37.5 -32s32.833 -11 53.5 -11c19.333 0 37.5 6.16699 54.5 18.5s25.5 30.166 25.5 53.499c0 20.667 -8.83301 38.834 -26.5 54.501s-38.167 29.834 -61.5 42.501l-13 7l-12 8
c-28.667 14.667 -54.834 32.167 -78.501 52.5s-35.5 48.833 -35.5 85.5c0 38 14 68 42 90s60.667 33 98 33h6l5 -1c7.33301 0 16.666 -2 27.999 -6c5.33301 0 10.666 -1.33301 15.999 -4c6.66699 -1.33301 13 -3.66602 19 -6.99902l11 -3l9 -1c4.66699 0 8 0.666992 10 2
l5 5l1 3l1 3l13 1v-136h-16c-8 34 -20.333 62.667 -37 86c-15.333 23.333 -39.666 35 -72.999 35c-18.667 0 -36 -5.66699 -52 -17s-24 -27.333 -24 -48c0 -20 9.33301 -38.333 28 -55c15.333 -13.333 37 -28 65 -44l12 -8l13 -6c29.333 -16 56.166 -34.5 80.499 -55.5
s36.5 -46.833 36.5 -77.5c0 -42 -15 -74.667 -45 -98s-64.667 -35 -104 -35c-9.33301 0 -16 0.666992 -20 2l-18 3l-16 4l-18 5l-24 6l-17 2l-13 -3l-6 -6l-2 -3l-14 -2v155h17z" />
    <glyph glyph-name="t" unicode="t" horiz-adv-x="290" 
d="M164 70c5.33301 -19.333 17.333 -28.999 36 -28.999l13 2l16 5c5.33301 2 12 6.33301 20 13l17 17l13 -10c-18 -24 -38 -43 -60 -57s-45 -21 -69 -21c-32 0 -53.667 10.667 -65 32c-9.33301 20.667 -14 56 -14 106v288h-30l-4 -1l-5 -1l-14 1
c-2 1.33301 -3.66699 3.66602 -5 6.99902v4l2 4c18.667 12.667 35.667 27 51 43l45 51l18 23l20 23l3 4l4 5v-131h99v-32h-99v-270c0 -34 2.66699 -59.333 8 -76z" />
    <glyph glyph-name="u" unicode="u" horiz-adv-x="500" 
d="M432 63c5.33301 -9.33301 22.999 -13.999 52.999 -13.999v-13l-47 -16l-52 -17l-3 -1l-21 -6l-18 -6v86l-21 -23l-11 -12l-12 -11c-12 -10 -26.667 -19.167 -44 -27.5s-37.666 -12.5 -60.999 -12.5c-40 0 -69.667 12.667 -89 38c-18.667 26.667 -28 61 -28 103v230
c0 29.333 -3.66699 48.666 -11 57.999s-24.666 14 -51.999 14v15h148v-312c0 -25.333 5.66699 -46.5 17 -63.5s30.666 -25.5 57.999 -25.5h10l11 3l15 4l15 7c10 5.33301 19 11.333 27 18l11 10l7 10l4 16v20v6v8v210c0 28 -4 47.333 -12 58s-28.333 16 -61 16v15h158v-329
c0 -24 3 -42.667 9 -56z" />
    <glyph glyph-name="v" unicode="v" horiz-adv-x="500" 
d="M263 10l-2.99902 -7.00195l-3 -4l-2 -4l-4 -3l-3 -2l-3 2l-4 3l-3 4l-2 4l-4 7l-2 5l-156 364c-4.66699 10.667 -12.667 22.334 -24 35.001c-4.66699 4.66699 -13.667 10.334 -27 17.001l-7 1l-6 1v15h196v-14c-16 0 -27.167 -2.5 -33.5 -7.5s-10.5 -12.5 -12.5 -22.5
l2 -17l7 -18l2 -6l3 -6l97 -238l77 204l17 48l7 34c0 10 -3.83301 17.167 -11.5 21.5s-18.167 6.5 -31.5 6.5v15h139v-14c-12.667 0 -24.334 -6.66699 -35.001 -20l-23 -43l-5 -15l-6 -14l-133 -326z" />
    <glyph glyph-name="w" unicode="w" 
d="M492 -8l-3.00098 -1.99609l-3 1l-3 2l-2 2l-109 272l-128 -270l-4 -4l-2 -2l-3 -1l-4 2l-3 3l-140 347l-14 33l-10 26c-4.66699 11.333 -10.167 19.166 -16.5 23.499s-15.166 7.16602 -26.499 8.49902v15h180v-14c-12 0 -23 -2 -33 -6
c-8.66699 -4.66699 -13 -14.334 -13 -29.001l6 -31l8 -26l10 -21l2 -7l3 -7l15 -38c4 -12.667 7.66699 -21.334 11 -26.001l50 -126l90 194l-9 28l-8 26c-8 23.333 -17.167 40.5 -27.5 51.5s-24.833 16.5 -43.5 16.5v15h203v-14c-20.667 0 -35.667 -2.16699 -45 -6.5
s-14 -12.833 -14 -25.5c0 -8 1.66699 -16.333 5 -25l12 -35l85 -220l82 201l18 47c4 14 6 25.333 6 34c0 10 -3.66699 17.333 -11 22s-18 7 -32 7v15h123v-14c-6 -2 -12.667 -7 -20 -15l-14 -22l-7 -16l-5 -12l-151 -372z" />
    <glyph glyph-name="x" unicode="x" horiz-adv-x="500" 
d="M432 33c14.667 -13.333 30.3291 -20.002 46.9961 -20.002v-13h-201v14c14.667 0 26.834 1.83301 36.501 5.5s14.834 9.16699 15.501 16.5l-2 5l-3 7l-104 149l-72 -113l-20 -35l-4 -11l-3 -10c0 -6 3 -10 9 -12s16.333 -3 31 -3v-13h-145v14c12 0 22.667 2.33301 32 7
l26 24l10 13l12 17l107 156l-86 131l-8 12l-7 12c-4.66699 8.66699 -13.667 19.334 -27 32.001c-3.33301 3.33301 -9.16602 6.33301 -17.499 9s-19.5 4.66699 -33.5 6v15h207v-14c-14.667 0 -25.167 -2.83301 -31.5 -8.5s-10.166 -12.167 -11.499 -19.5
c0 -6 2.66699 -13 8 -21l19 -32l2 -4l2 -4l17 -27l12 -18l13 18l19 26l4 6l4 6l19 29c2.66699 5.33301 5.33398 13.333 8.00098 24c0 7.33301 -2.66699 12.333 -8 15l-18 7l-7 1l-7 1v15h158v-14c-8.66699 0 -17.334 -1.66699 -26.001 -5l-25 -13
c-14 -10 -26.333 -22.667 -37 -38l-77 -107l121 -186c11.333 -19.333 25.333 -36.666 42 -51.999z" />
    <glyph glyph-name="y" unicode="y" horiz-adv-x="500" 
d="M388 398l1.00195 8c0 4.66699 -3 10 -9 16c-5.33301 4 -18.333 7.66699 -39 11v15h135v-14l-8 -3l-7 -4c-3.33301 -2 -8.66602 -7 -15.999 -15l-13 -20l-4 -9l-4 -8l-147 -382l-15 -37l-7 -21c-2 -8 -5.33301 -15 -10 -21c-14.667 -34.667 -33.334 -64.667 -56.001 -90
c-22 -27.333 -50.667 -41 -86 -41c-10 0 -16.667 0.666992 -20 2c-4 0 -10.667 2.33301 -20 7c-8.66699 2.66699 -17.334 10.334 -26.001 23.001l-5 14l-2 13l1 9l4 10c2 4.66699 7 10 15 16c6 3.33301 13.333 5.33301 22 6l4 1h6l17 -3l19 -7l11 -4l13 -3l4 -1h5l8 1l8 3
c7.33301 3.33301 17 14.333 29 33l15 28l20 47l1 3l3 8l3 7l3 9l1 11v4l-1 4l-170 366c-4.66699 11.333 -11.334 20.333 -20.001 27s-20.667 12 -36 16v15h206v-14c-22 0 -37.167 -2.33301 -45.5 -7s-12.833 -12.334 -13.5 -23.001l3 -17l8 -21l115 -252l98 278z" />
    <glyph glyph-name="z" unicode="z" horiz-adv-x="444" 
d="M405 448l0.000976562 -14l-271 -403h126l18 -1l17 1h12h8c3.33301 1.33301 5.66602 2 6.99902 2l26 8c12 4 21.667 11.667 29 23l14 38c0 4.66699 0.666992 7.66699 2 9l2 8l2 10l3 9l18 -3l-14 -135h-379v14l268 403h-126c-42 0 -67.5 -7.5 -76.5 -22.5
s-15.5 -36.5 -19.5 -64.5l-18 1l3 117h349z" />
    <glyph glyph-name="braceleft" unicode="{" 
d="M477 644l-0.00292969 18.001h234v-18h-24c-24.667 0 -45 -11 -61 -33c-6.66699 -11.333 -10 -34.666 -10 -69.999v-269c0 -68.667 -6.66699 -120.834 -20 -156.501s-39.666 -66.5 -78.999 -92.5s-91.333 -39 -156 -39c-72 0 -126.5 12.5 -163.5 37.5
s-63.833 58.833 -80.5 101.5c-10 29.333 -15 83.666 -15 162.999v259c0 39.333 -5.66699 65.666 -17 78.999s-29.666 20 -54.999 20h-25v18h287v-18h-26c-28.667 0 -47.667 -7.66699 -57 -23s-14 -40.666 -14 -75.999v-289c0 -28 2.5 -58 7.5 -90s13.167 -57.333 24.5 -76
c11.333 -16.667 29.333 -32 54 -46l39 -13c15.333 -3.33301 31 -5 47 -5c42 0 80.333 9.16699 115 27.5s58.334 42.5 71.001 72.5s19 80.333 19 151v268c0 41.333 -4.33301 67.333 -13 78c-13.333 14 -32.333 21 -57 21h-25zM473.997 864.001l-138 -139l-23 -18
c-8 -6 -16.667 -10 -26 -12h-5l-6 -1l-3 1l-4 1l-10 9l-7 11l-1 5l-1 4c0 6 2.33301 12.333 7 19l17 17l5 5l6 4l3 2l2 2l144 90h40z" />
    <glyph glyph-name="bar" unicode="|" 
d="M477 620v17.001h234v-17h-24c-26 0 -46.333 -9.66699 -61 -29c-6.66699 -8.66699 -10 -29.667 -10 -63v-242c0 -62.667 -6.5 -109.667 -19.5 -141s-39 -58.833 -78 -82.5s-91.5 -35.5 -157.5 -35.5c-72 0 -126.5 11 -163.5 33s-63.833 52.667 -80.5 92
c-10 26 -15 74.667 -15 146v233c0 36 -6 60 -18 72c-9.33301 11.333 -27.333 17 -54 17h-25v17h287v-17h-26c-28 0 -46.833 -6.83301 -56.5 -20.5s-14.5 -36.5 -14.5 -68.5v-260c0 -26 2.5 -53.333 7.5 -82s13.333 -50.834 25 -66.501s29.5 -29.5 53.5 -41.5l40 -13l46 -4
c42 0 80.167 8.33301 114.5 25s58 38.5 71 65.5s19.5 72.167 19.5 135.5v241c0 38 -4.33301 61.667 -13 71c-13.333 12 -32.333 18 -57 18h-25zM200 790.001c14 0 26.168 -4.66797 36.501 -14.001s15.5 -20.666 15.5 -33.999c0 -14.667 -4.66699 -27 -14 -37
c-8 -10 -19 -15 -33 -15s-26.667 4.33301 -38 13c-10 9.33301 -15 21 -15 35s4.66699 26.167 14 36.5s20.666 15.5 33.999 15.5zM525.001 790l5.99902 1h5c12 0 22.833 -3.5 32.5 -10.5s15.834 -16.5 18.501 -28.5l1 -10c0 -11.333 -4 -22.333 -12 -33s-18.333 -17 -31 -19
c-14 -2 -26 0 -36 6s-17 14.333 -21 25l-3 19c0 12 3.66699 22.667 11 32s17 15.333 29 18zM535 922l-137 -167h-62l-124 167h34l121 -103l122 103h46z" />
    <glyph glyph-name="braceright" unicode="}" 
d="M477 644l-0.00292969 18.001h234v-18h-24c-24.667 0 -45 -11 -61 -33c-6.66699 -11.333 -10 -34.666 -10 -69.999v-269c0 -68.667 -6.66699 -120.834 -20 -156.501s-39.666 -66.5 -78.999 -92.5s-91.333 -39 -156 -39c-72 0 -126.5 12.5 -163.5 37.5
s-63.833 58.833 -80.5 101.5c-10 29.333 -15 83.666 -15 162.999v259c0 39.333 -5.66699 65.666 -17 78.999s-29.666 20 -54.999 20h-25v18h287v-18h-26c-28.667 0 -47.667 -7.66699 -57 -23s-14 -40.666 -14 -75.999v-289c0 -28 2.5 -58 7.5 -90s13.167 -57.333 24.5 -76
c11.333 -16.667 29.333 -32 54 -46l39 -13c15.333 -3.33301 31 -5 47 -5c42 0 80.333 9.16699 115 27.5s58.334 42.5 71.001 72.5s19 80.333 19 151v268c0 41.333 -4.33301 67.333 -13 78c-13.333 14 -32.333 21 -57 21h-25zM528.997 892.001l-131 -167h-62l-124 167h34
l121 -103l122 103h40z" />
    <glyph glyph-name="asciitilde" unicode="~" 
d="M458 222l-257 0.000976562l-45 -105c-10.667 -28 -16 -47 -16 -57s4.33301 -19 13 -27c9.33301 -6 30.333 -11 63 -15v-18h-208v18c27.333 5.33301 45.333 11.666 54 18.999c16 16 34.333 47.667 55 95l233 545h17l230 -551c20 -44 36.667 -72.667 50 -86
c6.66699 -6 16 -11.667 28 -17c11.333 -3.33301 23.333 -5 36 -5v-18h-261v18c24.667 0 42 4 52 12s15 17.667 15 29c0 14.667 -6.33301 37 -19 67zM444 258.001l-112 267l-116 -267h228zM103 830.001h522v-68h-522v68z" />
    <glyph glyph-name="nonbreakingspace" unicode="&#xa0;" horiz-adv-x="500" 
 />
    <glyph glyph-name=".null" horiz-adv-x="0" 
 />
    <glyph glyph-name="nonmarkingreturn" horiz-adv-x="333" 
 />
    </font>
</defs>
</svg>
